<svg xmlns="http://www.w3.org/2000/svg" xmlns:xlink="http://www.w3.org/1999/xlink" viewBox="219.904 33.969 585.221 442.193" xmlns:v="https://vecta.io/nano"><style><![CDATA[.B{fill:#52acea}.C{fill:#21e2e2}.D{fill:#dfebf1}.E{fill:#f3f7f9}.F{fill:#ffbc98}.G{fill:#288ed9}.H{fill:#eaf8f9}.I{fill:#005b9f}.J{stroke-width:2}.K{fill:none}.L{fill:#137fcf}.M{fill:#dff3fd}.N{fill:#0e71bb}.O{stroke:#ffbc98}.P{fill:#80c9ff}.Q{fill:#d6eeff}.R{fill:#fff}.S{stroke:#21e2e2}.T{fill:#7baffd}.U{fill:#1f364c}.V{fill:#166ecb}.W{fill:#1b313b}.X{fill:#1e2f37}.Y{fill:#c9e5fb}.Z{fill:#0266d8}.a{fill:#0062d1}.b{fill:#184577}.c{fill:#1a3a54}.d{fill:#0f569d}.e{fill:#057bf8}.f{fill:#8f3d3b}.g{fill:#0e1e21}.h{fill:#0756a2}.i{fill:#037bfa}]]></style><linearGradient id="A" gradientUnits="userSpaceOnUse" x1="513.17239400011" y1="456.748208560006" x2="513.17239400011" y2="345.426728560007"><stop offset="0" stop-color="#005b9f"/><stop offset="1" stop-color="#09345c"/></linearGradient><ellipse fill="url(#A)" cx="513.109" cy="401.047" rx="269.5" ry="55.661"/><path d="M407.632 394.548s-.009-.064.047-.137c.126-.373.216-.668.263-.972l1.945-12.876c.717-5.143 1.135-10.317 1.112-15.521-.01-2.193.676-4.062 2.127-5.636.2-.217.288-.547.428-.825 0 0 .01.012.06.028a70.698 70.698 0 0 0 2.355-1.89s-.004.014.048.017c.85-.446 1.628-.935 2.447-1.334 1.66-.81 3.341-1.571 5.014-2.353l.833-.245 1.644-.614 2.055-.597 11.789-2.716c.926-.211 1.859-.391 2.851-.583.245-.108.429-.219.683-.337.657-.055 1.243-.103 1.873-.103.654.002 1.263-.043 1.917-.033.333.087.619.146.905.147l7.333.081c-.087 2.045-.173 4.027-1.178 5.819-.282-.149-.491-.271-.709-.37a9.252 9.252 0 0 0-.749-.297c-7.62-2.694-15.365-3.133-23.21-1.323-1.69.389-3.355.928-4.996 1.51-1.682.596-2.672 2.32-2.342 3.837.423 1.947 2.438 2.996 4.442 2.39 1.946-.589 3.899-1.169 5.878-1.609 1.469-.327 2.985-.423 4.513-.627v11.047c-.715 0-1.355-.024-1.992.006-1.385.065-2.777.079-4.149.259-1.977.26-3.655 1.335-5.349 2.378-.217-.185-.423-.459-.565-.426-.189.044-.42.305-.466.513-.075.345-.017.722-.038 1.138-.604.883-1.271 1.662-1.748 2.553-1.104 2.062-.607 3.978.673 5.83l-.185 1.602-1.037 5.024c-.268 1.185-.619 2.35-1.032 3.591-.338.999-.575 1.932-.813 2.865 0 0-.005-.011-.03-.003-.042.022-.075.046-.073.051.02.037.045.071.068.106l-2.453 7.582c-.832 2.423-1.737 4.818-2.642 7.211-.543 1.436-1.149 2.846-1.769 4.302-.199.015-.367.027-.513-.027l-8.467-3.199 1.437-6.439s-.007-.068.047-.145c.252-.951.477-1.82.643-2.7l1.075-5.95z" class="T"/><path fill="#4896fe" d="M433.624 406.428l-.635 2.555-.724 2.001-4.788-1.036a50.447 50.447 0 0 1-3.819-1.078l.032-1 1.43-21.573.028-.263.134-3.474c.011-.219.142-.431.291-.644l1.424.137 11.623.118-2.218 11.875-1.035 5.177s.016.021-.041.073a9.43 9.43 0 0 0-.36 1.182l-1.342 5.95z"/><path d="M394.94 421.807l2.742-.027 4.433-.835c.335.002.605-.034.866.002.594.084.914-.156 1.004-.797.129-.014.202-.025.323.006l5.128.925c.678.105.375.647.424 1.163a128.71 128.71 0 0 1-.352 3.536c-.104.902-.469 1.189-1.29 1.029l-6.197-1.218-6.669-1.263s-.023.03-.048-.052a.663.663 0 0 0-.362-.104s.011-.008.054-.053c-.648-.635-.601-1.382-.365-2.169 0 0 .002.013.034.059.114-.036.194-.119.275-.202zm23.089-.161s.071-.03.179-.012l3.753-.893c.671-.11 1.513.441 1.795-.691.261.004.462.017.726.058l4.738.837c.153.298.324.574.332.854.014.513-.068 1.029-.11 1.544l-.168 2.599c-.023.242-.204.468-.436.703-.466.001-.817.052-1.148-.012l-5.081-1.024-7.613-1.267.059-.056c-.546-.588-.417-1.303-.374-1.997 0 0 .002.013.062.046.074-.05.087-.133.101-.216 0 0 0 .012.056.059l3.129-.532z" class="X"/><path d="M548.003 338.654a201.128 201.128 0 0 1 2.861-.002l1.977-.006h.62c0 .843.064 1.662-.034 2.46-.034.283-.438.696-.711.731-.763.101-1.547.05-2.321.03-.431-.012-.626.128-.628.621l-.15 33.15.001 39.705.152 6.97.005 3.273c.002.638-.35.8-.883.787l-2.245-.007-50.203.015c-.31 0-.619.182-1.024.274-.121-.027-.147-.049-.148-.12.117-.206.209-.363.374-.514l11.998-.023 41.664.012v-1.098l-.001-47.309-.016-.993.001-.689.014-31.274-.014-1.673.133-1.431 3.104-.038c.214-.01.584-.246.599-.407.066-.714.028-1.437.028-2.285-1.789 0-3.484 0-5.181-.042-.003-.041.028-.117.028-.117z" class="Y"/><path d="M423.668 408.945l3.809 1.003 4.817 1.078.646.224-.007 1.181a280.476 280.476 0 0 0-.434 3.052l-2.889-.373-4.717-.882a95.99 95.99 0 0 0-2.394-.385c-.172-.015-.344-.029-.532-.165l.165-4.855c.187-.013.375-.025.669.014.36.07.614.089.867.108z" class="i"/><path d="M404.416 409.848l8.481 3.133c.146.054.314.042.549.081a63.998 63.998 0 0 1-1.098 5.001c-.816-.215-1.559-.51-2.345-.843l-3.282-1.603c-.419-.189-.886-.261-1.33-.386l-2.54-1.368.659-4.178s.042-.034.127-.022l.779.185z" class="e"/><path d="M435.423 399.183l.979-5.137 2.278-11.892 8.885-.107 6.958-.029 5.428.015-.012 5.365-.011 6.769h-1.442v25.871c-2.133.113-4.216.012-6.224.368l-19.594 3.755c-.749.145-1.215.565-1.265 1.387-.048.785.355 1.263 1.202 1.557-.752 1.101-.862 2.211-.331 3.393.086.193.141.402.213.601l.009-.009c-.856-.525-1.217-1.898-.851-2.735.28-.641.166-1.091-.189-1.728-.821-1.479-.064-2.613 1.61-2.973l3.032-.636 2.313-.383 3.496-.718 4.439-.807 4.979-1.124c.693-.143 1.41-.197 2.118-.21l4.88-.01v-4.749l-.019-20.108c-.005-.876.163-1.36 1.17-1.127v-11.349h-20.466l-.877 4.179-.343 2.415a25.37 25.37 0 0 1-.328 1.843l-.712 2.886-.732 3.731c-.124.565-.355 1.105-.593 1.696z" class="E"/><path d="M424.952 414.258l4.654.919-.154 3.094c-.002.042-.003.085-.041.244l-.248 2.409-4.672-.889.307-5.192s-.028-.044.026-.098c.078-.199.103-.343.128-.487zm-19.562 1.037c.445.061.912.133 1.331.322l3.27 1.663c-.017.339-.067.58-.116.821l-.45 2.924a59.037 59.037 0 0 1-5.113-.935l.925-4.023.153-.772z" class="f"/><path d="M425.892 352.207l-1.517.583c-.359-.078-.666-.262-.973-.263-9.033-.015-18.067.031-27.099-.041-2.464-.02-4.525-1.207-5.939-3.388-.792-1.221-1.302-2.574-1.201-4.125.064-.98.012-1.969.012-3.109-1.291 0-2.576 0-3.986-.056a5.563 5.563 0 0 0-.999-.108l-21.191-.008c-.312 0-.623-.075-.861-.131l25.768-.024c.532 0 1.065.027 1.598.117l.001 2.693c0 4.638 3.034 7.82 7.457 7.82l27.409.003c.507 0 1.014.024 1.521.037z" class="M"/><path d="M413.494 358.586c-.08.273-.168.603-.368.82-1.451 1.574-2.137 3.443-2.127 5.636.023 5.204-.395 10.378-1.112 15.521l-1.945 12.876a5.924 5.924 0 0 1-.25.943 59.76 59.76 0 0 1 .304-3.115c.127-1.021.26-2.043.438-3.056.168-.95.398-1.887.601-2.83.011-.054.027-.108.032-.163l.326-3.36.786-6.842c.007-.056.009-.112.012-.167.107-1.937.074-3.897.359-5.804.311-2.082.088-4.177.341-6.227.185-1.503 1.082-2.815 2.173-3.886.12-.118.246-.228.43-.346z" class="H"/><path d="M460.395 431.106c-.18-.17-.442-.303-.527-.514-.579-1.431-.586-2.211.523-3.663l.512-.724-5.782.319c-1.602.051-3.21-.065-4.81.016l-5.967.498c-.053.005-.107.003-.16.005l-4.13.163c-.353.01-.709-.057-1.138-.095l.001.522c.001.072.003.07-.052.097-.229-.251-.401-.529-.595-.842l.521-.058 12.792-.505 8.955-.337c.362-.013.872-.188.775.548-1.557 1.158-1.81 2.662-.828 4.474l-.09.096zm28.715.678c-.935-.264-1.149-1.104-1.446-1.92-.342-.941-.024-1.745.361-2.563l-3.029-.255-4.889-.175-6.967-.334-4.36-.176-2.738-.134.139.578c0 .063.011.053-.045.044a7.843 7.843 0 0 1-.615-.446c.305-.694.856-.415 1.279-.402l8.297.32 13.566.602c-1.251 1.796-1.056 3.409.534 4.762l-.087.099z" class="D"/><path d="M328.055 352.856l-.004 10.632.004 14.548-.004 2.52-.003 24.701c0 .333-.047.665-.098.923a4.239 4.239 0 0 1-.043-.58l.002-55.223c0-.25.038-.501.085-.756.026-.004.077.009.069.088a485.541 485.541 0 0 0-.008 3.147z" class="T"/><path d="M327.976 406.255l.072-.998.005-24.622c.057.028.158.136.16.246l.163 9.235.005 5.82v6.806l-.007 2.854a32.797 32.797 0 0 1-.258 3.095c-.09-.682-.117-1.311-.145-2.002l.005-.434z" class="E"/><path d="M423.658 408.87c-.243.056-.497.037-.801-.025.388-.238.565-.555.592-1.086l.381-5.208.637-7.161c.053-.642-.02-1.295.008-1.941l.322-6.492c.012-.208.13-.409.261-.636l-1.368 21.549-.032 1zm-67.53-67.155l-5.925-.02-15.605.008c-.255.001-.509.089-.765.136l-5.428.02c-.219.002-.302 0-.387-.077.773-.142 1.548-.21 2.393-.265l18.03.019 7.694.072c0 .036-.007.107-.007.107z" class="M"/><path d="M395.396 424.38l6.625 1.211 6.197 1.218c.821.16 1.186-.127 1.29-1.029a82.28 82.28 0 0 0 .328-3.462l.038 2.446c.008 2.116-.785 2.699-2.748 2.202l-5.813-1.271-5.634-1.054c-.089-.017-.16-.136-.283-.261z" class="D"/><path d="M328.054 409.452c.109.522.296 1.041.312 1.565l.015 4.394-.008 9.8c-.001.27-.115.539-.248.807-.072-.002-.07.001-.069-.045l-.081-.352a2.526 2.526 0 0 1 .029-.507l-.035-4.739.033-.836-.033-6.941.032-1.166.053-1.98zm28.107-67.673c-.033-.064-.026-.135.028-.183a.419.419 0 0 1 .322.019c.492.013.934-.012 1.442-.051.242-.003.418.006.649.054a59.244 59.244 0 0 0 3.036-.054c.182-.005.304.004.426.013.312.04.623.115.935.115l21.191.008a5.1 5.1 0 0 1 .924.096l-7.07.069-21.883-.086z" class="E"/><path d="M415.019 424.402l7.59 1.207 5.081 1.024c.331.064.682.013 1.094.037-.709.839-1.513.116-2.272 0l-6.175-1.153-5.318-1.115z" class="D"/><path d="M423.696 420.058c-.222 1.124-1.064.573-1.77.639-.782-.264-.986-.732-.761-1.424 0 0 .019-.024.104-.014l1.176.159-.051-1.092c-.013-.033-.005-.058.129-.053l.914-.02c.032-.013.055-.003.022.113.047.62.142 1.156.237 1.692m-2.12.191l1.071.196.08-.285-.911-.585c-.112-.058-.287.02-.433.035.03.19.061.381.193.639m1.112-1.267l.39 1.033.223-.082c0-.342.071-.708-.02-1.021s-.333-.681-.593.07z" class="V"/><path d="M328.119 378.009l-.066-14.442.276 3.742-.013 4.333c-.005.457-.085.914-.092 1.371l-.105 4.996z" class="E"/><path d="M423.413 353.037l-4.949 2.365-2.453 1.331c.489-.454.985-1.016 1.596-1.329l4.761-2.208c.297-.131.652-.118 1.045-.159z" class="H"/><path d="M333.908 341.852c.181-.06.435-.148.69-.149a7309.36 7309.36 0 0 1 15.531 0c-.164.056-.404.156-.644.157-5.168.008-10.335.005-15.577-.008Z" class="E"/><path d="M407.573 394.581l-1.016 5.917-.629 2.669.357-2.683.383-2.144.557-2.232.348-1.527z" class="H"/><path d="M495.241 426.888c-.044.257-.197.564-.115.763.519 1.252.409 2.438-.405 3.46-.356.446-.959.675-1.513.959-.066-.077-.068-.112-.033-.186 1.861-.971 2.239-2.467 1.234-4.773.233-.127.466-.253.732-.34l.1.117Z" class="Y"/><path d="M429.512 418.243l.156-3.031 2.831.271.422-2.965.055 1.891c-.037 1.191-.711 1.654-1.758 1.242-1.153-.455-1.424-.231-1.454 1.124-.01.481-.124.96-.252 1.468z" class="D"/><path d="M404.43 409.782c-.245.009-.476-.049-.766-.117.832-.871.952-2.075 1.24-3.208l.897-3.098-1.371 6.423z" class="H"/><path d="M423.756 420.05a8.094 8.094 0 0 1-.298-1.662c.247.064.446.189.78.4l.231-1.865.268-2.052-.309 5.135c-.21.061-.411.048-.672.044zm-18.583-3.977l-.908 3.975c-.078.077-.151.088-.305.031-.089-.346-.065-.63-.112-.9-.109-.629-.398-.979-1.089-.662l-.119-.115c.249-.109.492-.29.748-.313 1.071-.097 1.366-.377 1.517-1.507.023-.174.134-.335.268-.509z" class="E"/><path d="M433.69 406.423l1.276-5.945c.087-.381.202-.753.351-1.173l-.431 2.796-.628 2.633a12.56 12.56 0 0 1-.568 1.689z" class="H"/><path d="M465.39 431.945c-.24.111-.475.306-.719.318l-2.472.015c-.789.006-1.399-.317-1.8-1.111.016-.082.036-.104.125-.118.829.781 1.691 1.202 2.844.889a106.289 106.289 0 0 0 2.022.007z" class="D"/><path d="M437.476 431.945c-.3.109-.596.296-.901.314-.766.046-1.537.016-2.306.016-.781-.001-1.343-.409-1.774-1.123.001-.062-.005-.056.039-.099.685.66 1.454 1.04 2.393.994l1.339-.031a11.873 11.873 0 0 0 1.21-.071z" class="E"/><path d="M421.103 419.27c-.163.695.041 1.163.75 1.428a59.504 59.504 0 0 1-3.607.945l1.657-.542c.433-.18 1.275-.128.758-1.113-.067-.128.243-.475.442-.718z" class="H"/><path d="M422.062 408.808l-.112 4.819c-.124-.232-.352-.534-.35-.835l.152-3.407c.014-.202.157-.394.31-.577zm-18.613.854l-.625 4.148c-.68-.244-.354-.903-.297-1.332.12-.908.438-1.788.685-2.676.019-.067.115-.109.237-.14z" class="M"/><path d="M466.176 426.873c.936.334 1.641 2.187 1.163 3.084a2.063 2.063 0 0 1-.465.612c-.09-.021-.144-.069-.117-.129.538-1.366.249-2.523-.565-3.582l-.016.015Z" class="D"/><path d="M328.129 343.154l.189 2.831c-.126.484-.176.865-.227 1.247.026.12.053.24.027.472l-.07 1.103c-.026.006-.08-.003-.103-.079l.07-5.656.114.082z" class="T"/><path d="M493.137 431.924l.011.154c-1.338.211-2.688.51-4.012-.235-.007-.081.013-.103.118-.128l2.825.286c.393.003.726-.037 1.058-.077z" class="D"/><path d="M402.046 420.939l-4.288.84c.224-.665.858-.307 1.317-.471.725-.258 1.494-.379 2.297-.654.073-.12.095-.144.161-.14l.513.425zm-73.972-72.138l.003-1.068c.109.105.295.297.29.482a82.346 82.346 0 0 1-.248 4.615 29.777 29.777 0 0 1-.016-3.16c.021-.37-.004-.62-.029-.869z" class="E"/><path d="M429.22 420.945c.013-.785.084-1.55.166-2.371l.375 3.956c.019.247-.125.507-.257.787-.02-.489.062-1.005.048-1.518-.008-.28-.179-.556-.332-.854z" class="D"/><path d="M415.907 356.726a34.673 34.673 0 0 1-2.299 1.878c.582-.81 1.236-1.58 2.299-1.878Z" class="H"/><path d="M425.499 381.913c-.075.216-.206.428-.217.647l-.113 3.408-.044-3.271c.004-.508-.144-.845-.62-1.075-.003-.087.037-.145.088-.123l.906.414z" class="D"/><path d="M409.93 418.079c-.006-.219.044-.46.105-.761l2.3.814-1.559-.219c-.26-.016-.527.093-.846.166z" class="M"/><path d="M417.956 421.648a47.92 47.92 0 0 1-3.062.528c.892-.658 1.945-.564 3.062-.528Z" class="D"/><path d="M401.358 419.417l1.225-1.009c.083.019.11.045.159.166.019.379.015.663-.022.971-.032.025-.089.083-.151.075l-1.119-.11-.092-.093z" class="E"/><path d="M432.955 411.179c-.199.01-.383-.052-.595-.155.158-.684.345-1.327.572-2.011l.023 2.166z" class="M"/><path d="M394.571 421.956c-.176.781-.223 1.528.422 2.169-.987-.396-1.211-1.531-.422-2.169zm30.322-7.728a.831.831 0 0 1-.059.493c-.588-.854-1.579-.328-2.302-.816.746.056 1.524.175 2.361.323z" class="D"/><path d="M420.366 393.736l.698-2.814a34.214 34.214 0 0 1-.698 2.814z" class="H"/><path d="M328.052 409.386l-.076 1.971-.003-4.606.08 1.965-.001.67z" class="T"/><path d="M414.612 422.295c.026.688-.103 1.403.439 1.997-.748-.379-.915-1.129-.439-1.997Z" class="D"/><path d="M422.348 418.367c.063.308.079.657.097 1.051a56.432 56.432 0 0 0-1.164-.151c.292-.287.656-.573 1.067-.9Z" class="H"/><path d="M438.92 427.703c.106.138.304.282.299.417a17.706 17.706 0 0 1-.236 2.298c-.068.001-.063.007-.084-.063l.021-2.652s-.002.002 0 0zm-15.67-45.45c.003-.486.065-.998.172-1.557.218.153.39.354.564.552.001-.002-.001-.002-.001-.002-.156.106-.36.179-.457.328-.119.184-.15.433-.278.679z" class="D"/><path d="M438.881 430.587c.034.717-.392 1.016-1.027 1.185-.06.003-.057.006-.094-.045a9.477 9.477 0 0 1 1.03-1.141l.091.001zm113.93-92c-.579.063-1.189.066-1.874.064.554-.22 1.177-.571 1.874-.064z" class="E"/><path d="M466.512 431.1c.021.747-.571.684-1.06.842-.062.003-.067 0-.086-.058.37-.299.759-.541 1.147-.785-.002-.002-.001.001-.001.001Z" class="D"/><path d="M328.206 343.151c-.101-.016-.126-.035-.192-.147-.026-.444-.01-.796.006-1.148l.311.011c.025.429-.012.855-.125 1.284zm73.184 77.442c-.527-.31-.427-.727-.096-1.17.084.015.105.036.127.142l.067.922-.098.106zm-73.221-73.336a3.586 3.586 0 0 1 .136-1.206c.023.386-.017.809-.136 1.206z" class="E"/><path d="M466.811 430.573c-.041.19-.109.356-.238.524-.061.003-.062 0-.108-.038.057-.212.161-.385.265-.559l.081.073Z" class="D"/><path d="M423.389 418.202c-.223.065-.493.078-.846.073.212-.054.505-.09.846-.073zm40.537-135.329c.07-.11.139-.219.265-.333.056-.005.112.054.112.123a.706.706 0 0 1-.301.307 7.038 7.038 0 0 0-.076-.097z" class="E"/><path d="M394.96 424.227c.095-.048.207-.04.328.039-.098.054-.205.035-.328-.039zm29.521-42.664c-.117.006-.213-.015-.3-.122.027-.109.044-.132.103-.137l.258.173-.061.086zm-29.592 40.243a.337.337 0 0 1-.229.201c.034-.101.106-.152.229-.201z" class="D"/><path d="M437.794 431.775c-.072.054-.144.109-.267.166-.051.004-.057.002-.066-.068.106-.078.221-.086.336-.095l-.003-.003Z" class="E"/><path d="M438.894 430.544c-.013.043-.074.042-.101-.011.024-.071.075-.09.127-.108l-.008-.008c-.004.026-.005.056-.018.127zm-14.731-49.153c-.074.005-.121-.026-.173-.101-.005-.044-.003-.044.033-.083.098 0 .159.039.22.078l-.08.106z" class="D"/><path d="M495.363 426.684c.011.082-.017.13-.084.191-.061-.013-.083-.039-.119-.133.015-.103.049-.134.087-.158l.116.1Z" class="Y"/><path d="M463.611 283.218c.026-.052.05-.104.119-.163.043-.008.04-.012.066.053-.046.078-.117.093-.189.107 0 0 .003.004.004.003Z" class="E"/><path d="M414.8 422.129c.03.073.017.156-.063.205-.037-.087-.01-.141.063-.205Z" class="D"/><path d="M420.287 393.872c-.036.006-.061-.028-.081-.065-.002-.005.031-.029.078-.052.026.019.021.047.003.117Z" class="H"/><path d="M463.773 283.048c.023-.05.046-.101.112-.164.041-.011.092.053.077.125-.074.06-.133.047-.192.034l.003.005Z" class="E"/><path fill="#1d2f37" d="M463.796 283.108c.033-.052.092-.039.191-.066l.344-.35c1.643-1.89 3.713-2.267 5.96-2.081.293.024.588.01.946.101-.377.378-.873.607-1.251.971l-5.145 5.062-3.367 3.369c-2.338 2.326-4.933 4.4-6.639 7.354-1.567 2.714-2.284 5.679-2.091 8.844l.6 5.668.671 6.846.933 8.838c.247 2.56 1.023 4.866 2.776 6.718 1.713 1.809 2.573 3.998 2.506 6.521l-.446 8.646c-.103 3.046-1.324 5.504-3.356 7.57-2.199 2.235-3.14 5.006-3.242 8.159a226.649 226.649 0 0 1-.171 4.121l-.439 9.153c-.017.639.311 1.341.632 1.921.316.572.824 1.026 1.247 1.531l-6.89.043-8.879.037c-3.937.003-7.813-.006-11.689-.031-.451-.003-.901-.088-1.424-.137-.359-.133-.644-.264-.98-.417-.123-.073-.196-.125-.309-.195-.102-.058-.163-.097-.262-.095-.21-.159-.382-.36-.601-.579-1.325-1.805-1.822-3.721-.718-5.783.477-.891 1.144-1.67 1.798-2.566l1.058-1.164c1.655-1.091 3.333-2.166 5.31-2.426 1.372-.18 2.764-.194 4.149-.259.637-.03 1.277-.006 1.992-.006v-11.047c-1.528.204-3.044.3-4.513.627-1.979.44-3.932 1.02-5.878 1.609-2.004.606-4.019-.443-4.442-2.39-.33-1.517.66-3.241 2.342-3.837 1.641-.582 3.306-1.121 4.996-1.51 7.845-1.81 15.59-1.371 23.21 1.323.253.089.504.186.749.297.218.099.427.221.709.37 1.005-1.792 1.091-3.774 1.201-5.897l.34-5.181c.287-3.398-.477-6.391-2.865-8.831-1.282-1.309-1.957-3.039-2.33-4.796-.384-1.804-.382-3.699-.536-5.621-.009-.245-.03-.424-.046-.67-.022-.241-.049-.415-.052-.654-.07-.534-.165-1.003-.247-1.54.005-.25-.002-.432-.001-.658-.002-.071-.011-.098-.015-.199-.03-.311-.065-.549-.074-.841-.043-.366-.113-.678-.179-1.066l-.137-1.914-.884-9.166-.022-3.094c.004-.276.008-.488.024-.771.453-2.276 1.157-4.365 2.409-6.223.411-.608.775-1.251 1.212-1.887l5.377-5.136-.112-.208-2.843.588c-1.606.344-3.173-.299-4.092-1.719.217-.294.464-.588.667-.913.847-1.352 1.356-2.801.979-4.445-.141-.617-.439-1.165-1.106-1.304s-1.199.143-1.619.685l-.645.851c-.34-1.704.143-3.111.752-4.558l-2.361-.404c-.128-.094-.247-.206-.386-.278-2.043-1.064-2.72-2.73-2.034-5.018 1.126-3.754 3.919-4.721 6.96-2.407.237.181.532.344.667.595.534.99 1.316.803 2.077.497.793-.318 1.548-.744 2.32-1.122.53-.26 1.049-.55 1.594-.77 1.039-.421 2.032-.25 2.821.559.603.619 1.16 1.327 1.585 2.089.541.969.339 1.751-.426 2.621-.189.115-.402.171-.659.237 2.185 1.653 2.653 3.271 1.917 6.465-.05.217-.099.435-.128.721-.161.482-.344.894-.527 1.307l.173.193c.25-.22.499-.44.711-.715.036-.069.107-.084.153-.162m-20.793 85.318h5.477c.285-3.145.003-6.318 1.734-9.041-1.73-.895-7.634-2.048-9.489-1.866v10.819c.098.037.146.07.194.071l2.084.017z"/><path fill="#037cfd" d="M449.87 322.282c.028.175.055.349.044.631-.003.304.032.5.067.696.166 1.855.164 3.75.548 5.554.373 1.757 1.048 3.487 2.33 4.796 2.388 2.44 3.152 5.433 2.865 8.831l-.351 5.115-7.345.063a2.072 2.072 0 0 1-.887-.206l-.245-6.193c-1.576 0-3.035 0-4.561-.005l-.676.018-1.267-.066-7.173-.077a51.991 51.991 0 0 1 2.328-2.623l4.547-.011 6.595.02a27.58 27.58 0 0 1-.192-1.772l-.238-4.026-.031-1.741c.157-.956.177-1.872.463-2.685.359-1.018.983-1.928 1.406-2.925l1.44-3.786.333.392z"/><path d="M425.955 352.19c-.57.004-1.077-.02-1.584-.02l-27.409-.003c-4.423 0-7.457-3.182-7.457-7.82 0-.873-.001-1.745.063-2.705.239-.076.413-.064.588.024l.002 2.523c-.001 4.404 2.734 7.29 6.911 7.291l29.889.007c.337 0 .675.088 1.012.136l-2.015.567z" class="X"/><path d="M428.01 351.593c-.377-.018-.715-.106-1.052-.106l-29.889-.007c-4.177-.001-6.912-2.887-6.911-7.291 0-.816-.001-1.632.071-2.541a.982.982 0 0 1 .472-.112l27.107-.001c.186 0 .372.027.504.08-.445.053-.836.062-1.227.082l-2.63.157c-1.685.004-3.295-.004-4.956-.058-.155-.062-.259-.097-.363-.097-6.023-.002-12.046-.004-18.068.004-.201 0-.402.09-.662.167.035.551.212 1.072.207 1.592-.012 1.279-.135 2.624.416 3.758 1.204 2.479 3.133 3.931 5.883 3.931l29.666-.012a10.017 10.017 0 0 0 2.258-.278c1.576-.369 3.13-.846 4.706-1.216.836-.197 1.703-.246 2.552-.387l4.685-.82c.506-.098.989-.327 1.534-.525.126.107.201.243.276.378l-2.79.586-11.789 2.716z" class="D"/><path d="M445.161 347.806l-1.873.117c-.155-.137-.193-.247-.225-.425a9.577 9.577 0 0 0-.3-.908c-.002.009.015.014.005-.063a226.675 226.675 0 0 1-.323-3.401l.065-1.413 3.425-.011c.502.003.78.502.63.992a2.43 2.43 0 0 0-.071.954c.051.446.219.878.266 1.324.068.656.116 1.323.082 1.979-.012.226-.258.545-.467.63-.377.151-.807.158-1.214.225z"/><path d="M443.056 347.567c.039.109.077.219.161.363-.138.145-.322.256-.567.364-.136-.138-.211-.274-.329-.379-.043.031-.046.048-.007-.01-.718-1.798-.622-3.638-.527-5.539l-.145-.664a.288.288 0 0 0 .087-.105c.18-.012.359-.025.618.007a.185.185 0 0 1 .089.128l-.002 1.474c-.023.507-.063.871-.017 1.222l.361 2.176s-.017-.005-.052.038c.087.337.209.631.33.925z" class="W"/><path d="M442.51 341.713c-.074.019-.084-.064-.095-.104l4.481-.04.199 6.139c-.626.103-1.235.148-1.889.146.362-.115.792-.122 1.169-.273.209-.085.455-.404.467-.63.034-.656-.014-1.323-.082-1.979-.047-.446-.215-.878-.266-1.324a2.43 2.43 0 0 1 .071-.954c.15-.49-.128-.989-.63-.992a151.73 151.73 0 0 0-3.425.011z" class="M"/><path d="M425.52 371.069c-.289.414-.618.78-.996 1.159-.052-.35-.11-.727-.035-1.072.046-.208.277-.469.466-.513.142-.033.348.241.565.426Z" class="H"/><path fill="#037cfd" d="M326.598 426.001h-7.642l.056-83.18c.325.062.592.192.861.195l5.53.01c1.219.001 1.22.002 1.22 1.257l-.001 80.79-.024.928z"/><path d="M449.638 320.064c.008.182.015.364-.037.639l-2.664 3.582-1.203 1.578-.621.286c-.099-.018-.139-.027-.184-.08-.089-.118-.172-.192-.248-.264.007.001.005.016.014-.044-.108-.135-.226-.212-.337-.289.007 0 .006.014.018-.043-.275-.348-.561-.639-.88-.983l-5.419-5.83-1.748-1.923c-.185-.236-.282-.767-.157-1.02 1.469-2.969 3.038-5.877 5.163-8.4.445-.529.626-1.095.623-1.823l-.016-18.915c0-1.281 0-1.281-1.222-1.281l-55.907.009c-.08.032-.112.068-.138.126a.266.266 0 0 1-.052.051c-.066.072-.078.124-.066.259l.004 35.273c0 .332.071.665.113 1.032.058.059.113.083.243.105l51.332.057a2.257 2.257 0 0 1-.139.458c-.066.063-.078.112-.079.209a.312.312 0 0 1-.093.129c-.059.053-.072.095-.072.185-.042.082-.077.123-.19.15a20.316 20.316 0 0 0-.961-.023l-82.939-.07a3.46 3.46 0 0 1 .038-.796c.084-.105.124-.191.238-.286l29.415-.001c.759.001.99-.197.988-1.021l.003-34.793c.002-.861-.21-1.075-1.021-1.073l-32.789.02c-1.158 0-1.159.001-1.159 1.266l-.002 28.375c0 .479-.025.956-.102 1.439-.276.004-.488.003-.708-.075l-.03-.668.002-30.809c.001-.28.033-.56.051-.84l.799-.037 97.722-.001c.134 0 .268.005.488.081.001.488-.084.902-.244 1.298-1.668-.046-1.393-.114-1.396 1.355l-.004 17.02.041.965 4.243-1.584-.053.76.046 3.116.9 9.085.124 1.979c.044.445.105.75.167 1.054l.078.806c-.009.135.01.18.027.225z" class="e"/><path fill="#1d2e36" d="M321.131 338.801v-22.449l16.64.09.08 21.293c0 .355.098.711.098 1.083a.55.55 0 0 1-.321-.018c-2.626-.021-5.204.019-7.782.025-2.905.008-5.81-.015-8.715-.024z"/><path d="M338.001 338.801c-.052-.355-.15-.711-.15-1.066l-.006-21.28 7.318-.12a183.183 183.183 0 0 1 2.298.008l3.407-.013c.652-.033.808.222.801.866l.06 5.125c.007.038.042.107.042.107l-.009.821c.002.146.003.178-.017.28l-.118 15.274-13.028.027c-.132-.006-.208.006-.337.014l-.261-.043m8.178-9.981l.87-.428c2.267-1.302 3.021-4.328 1.672-6.695-1.322-2.322-4.305-3.04-6.417-1.545-1.902 1.346-2.611 3.849-1.703 6.013.917 2.185 3.141 3.28 5.578 2.655m-.603 6.971l.925-.774c.68-.679.608-1.534.351-2.35-.274-.873-.933-1.343-1.797-1.443-1.053-.122-1.784.399-2.291 1.339-.5.925-.211 1.793.327 2.506.578.766 1.407 1.087 2.485.722z" class="g"/><path fill="#024aa0" d="M321.058 338.807l8.788.018 7.73.016a2.606 2.606 0 0 1-.877.131c-1.891.005-3.783.021-5.673-.009-.565-.009-.766.19-.723.776s.027 1.176.038 1.765l-2.323.278-.044 1.198-.035 5.816.029.83-.059.751-.002 55.223c0 .168.011.337.043.58.023.199.021.323.021.509l-.024 4.73c.023.419.02.762-.004 1.254l.03 6.927-.03.849.032 4.726-.026.493a2.995 2.995 0 0 0-.028.331l-1.25.019c-.065-.326-.049-.636-.049-.945l.001-80.79c0-1.255-.001-1.256-1.22-1.257-1.844-.001-3.687.008-5.53-.01-.269-.003-.536-.133-.841-.262a14.3 14.3 0 0 1-.104-1.212h-2.279v-2.729l4.409-.006z"/><path d="M445.541 285.302l.24-1.31c-.028-.168-.041-.268-.097-.403.057-.493.162-.952.253-1.413.149-.751.519-1.49.218-2.169l.794-1.652c.787.071 1.545.2 2.39.345-.609 1.447-1.092 2.854-.752 4.558l.645-.851c.42-.542.95-.824 1.619-.685s.965.687 1.106 1.304c.377 1.644-.132 3.093-.979 4.445-.203.325-.45.619-.667.913.919 1.42 2.486 2.063 4.092 1.719l2.843-.588.112.208-5.42 5.093c-1.555-.368-2.784-1.164-3.931-2.195l-1.365-2.255-.54-2.326c-.1-.34-.268-.782-.528-.92-.519-.276-.59-.551-.318-1.045.13-.236.192-.514.285-.773z" class="f"/><path d="M346.677 316.259c-.45.076-.909.074-1.443.064l-.077-32.413 1.466.016c.059.296.027.576.026.856l-.002 30.809.03.668z" class="W"/><path d="M327.953 426.013c-.03-.087-.027-.16.001-.281.052.033.078.114.101.239-.003.045-.071.056-.102.042Z" class="T"/><path d="M401.533 420.514a3.783 3.783 0 0 1-.081-.918 4.536 4.536 0 0 1 1.135.06c.108-.016.136-.076.165-.136l.03-.908c.668-.412.957-.062 1.066.567.047.27.023.554.056.902-.009.71-.329.95-.923.866-.261-.036-.531 0-.866-.002-.225-.138-.382-.271-.582-.431m.687.012h.749c-.165-.341-.334-.548-.545-.62-.24-.08-.516-.039-.776-.051.152.21.304.42.572.671m1.413-.722c-.025-.434.121-.957-.714-1.195l.29 1.238c.025.075.267.069.424-.043z" class="V"/><path fill="#091217" d="M454.523 382.018c-.491-.519-.999-.973-1.315-1.545-.321-.58-.649-1.282-.632-1.921l.439-9.153.171-4.121c.102-3.153 1.043-5.924 3.242-8.159 2.032-2.066 3.253-4.524 3.356-7.57l.446-8.646c.067-2.523-.793-4.712-2.506-6.521-1.753-1.852-2.529-4.158-2.776-6.718l-.933-8.838-.671-6.846-.6-5.668c-.193-3.165.524-6.13 2.091-8.844 1.706-2.954 4.301-5.028 6.639-7.354l3.367-3.369 5.145-5.062c.378-.364.874-.593 1.322-.944.62-.081 1.233-.12 1.847-.121l16.199-.011c1.626-.007 2.94.592 4.043 1.849l8.488 9.549c.207.231.497.38.804.639l2.011 2.732c-.002.001-.002.001.007.04a.341.341 0 0 0 .138.172c.017.031.034.1.041.144.05.081.093.117.175.185.12.133.203.235.289.386l.305.495 1.302 4.23.211 1.763c.045.179.08.315.099.526l-.443 3.492-.744 3.833-.956 4.227-.816 3.712a76.546 76.546 0 0 0-.728 2.914l-.321 1.539a84.66 84.66 0 0 1-.308 1.467c-.013.068-.011.096-.023.18-.022.168-.03.282-.075.442-.064.204-.089.363-.13.56-.012.096-.008.152-.039.241-.047.096-.059.159-.085.275-.02.163-.027.272-.067.412-.047.09-.06.15-.091.269l-.166.846c-.58 2.88-1.934 5.196-3.985 7.088-.333.307-.577.722-.901 1.116l-.305.384a114.6 114.6 0 0 0-1.227 2.595l-.524 1.991-.12 2.895-.347 6.462c-.116 1.857.292 3.576 1.236 5.126.529.869 1.23 1.62 1.792 2.469 1.478 2.235 1.952 4.686 1.712 7.422-.358 4.079-.496 8.179-.703 12.271-.139 2.766-1.859 4.519-4.49 4.525l-12.08.008-15.36-.023c0 1.231 0 2.404-.063 3.579l-3.533.952c-1.135.278-2.284.492-3.426.734v-5.287c-1.849 0-3.605 0-5.428-.015z"/><path d="M533.568 292.588h14.396l-.068 45.857c-.223.143-.377.206-.531.206-4.381.005-8.762-.007-13.142.017-.633.003-.668-.321-.667-.835l.012-45.245m12.167 3.53c.764.05 1.13-.46 1.238-1.134.095-.594-.038-1.251-.666-1.448-.332-.104-.867-.012-1.117.222-.53.495-.537 1.198-.175 1.835.122.215.402.329.72.525z" class="g"/><path d="M533.494 292.572l.062 45.261c-.001.514.034.838.667.835l13.142-.017c.154 0 .308-.063.518-.128.068-.005.08.021.106.09.014.041-.017.117-.087.169l-14.341.064-37.683.006 1.24-2.496.445.063 27.843.012 3.743-.136 1.031-.002c1.134-.001 1.135-.001 1.135-1.155l.003-7.531c-.058-.228-.118-.395-.252-.574a51.902 51.902 0 0 0-1.516-.026l-11.867-.107a389.24 389.24 0 0 0-.163-2.611l.001-.081.002-2.693c.011-.653-.2-1.03-.887-.946a1.194 1.194 0 0 1-.56-.066c0-.247 0-.428.075-.608l4.063-.011c.524-.012.697.18.685.727l.002 3.773.002 1.799c.172.065.245.117.318.117l9.544.023c.582.004.552-.361.552-.775l.008-29.738c.001-.593-.177-.767-.733-.766l-25.263.024c-.209 0-.418.2-.627.306l-1.954-2.715c.186-.075.371-.105.556-.105l30.19.018m-15.279 31.614c-.068.537-.178 1.074-.182 1.611-.001.172.28.346.431.52.164-.188.445-.36.469-.566.062-.522.01-1.06.018-1.741l-.16-2.741c-.014-.171-.179-.327-.274-.491-.089.164-.252.327-.253.49l-.049 2.918m2.038.414l-.407-.463c-.085.152-.233.3-.244.458-.033.443-.035.894.007 1.335.013.134.207.249.317.373.108-.126.293-.243.309-.38.044-.385.018-.779.018-1.323z" class="W"/><path fill="#00479d" d="M482.395 382.102l12.018-.032c2.631-.006 4.351-1.759 4.49-4.525.207-4.092.345-8.192.703-12.271.24-2.736-.234-5.187-1.712-7.422-.562-.849-1.263-1.6-1.792-2.469-.944-1.55-1.352-3.269-1.236-5.126l.392-6.506c.112-.596.371-.717.819-.714l11.35.09.134 1.183-.039 14.831c-.01.522.017 1 .043 1.557l.015 15.361c-.009.249-.014.43-.061.665-.062.359-.1.665-.097.971l.142 15.786.004 15.374-.007 1.365-.024 15.471c-.004.065.016.111.036.159 0 .002.004.004 0 .037a1.817 1.817 0 0 0-.004.098c-3.95.015-7.9.029-11.932-.033-.134-1.28-.319-1.527-1.416-1.795-.387-.094-.782-.147-1.172-.222l-6.869-1.321a48.902 48.902 0 0 1-3.796-.914l.011-39.598z"/><path d="M482.38 421.777l3.8.837 6.869 1.321 1.172.222c1.097.268 1.282.515 1.343 1.788-.083.227-.175.384-.292.59l-.145.168-.718.408c1.005 2.306.627 3.802-1.234 4.773-.37.08-.703.12-1.096.058.089-.256.233-.414.387-.561.965-.923 1.281-2.23.825-3.429-.457-1.204-1.34-1.847-2.704-1.739-.653.051-1.283.422-1.924.648l-13.566-.54-8.297-.32c-.423-.013-.974-.292-1.279.402l.615.446c.87 1.068 1.159 2.225.621 3.591-.131.234-.235.407-.291.62l-1.098.826c-.628.061-1.277.062-2.033.008-.947-.496-1.7-1.124-1.76-2.132-.054-.921.209-1.863.351-2.938l-.56-.301c.044-.723-.466-.548-.828-.535l-8.955.337-12.792.505c-.158.006-.315.034-.521.058.194.313.366.591.595.842l.034 2.625c-.031.088-.082.107-.137.178l-1.002 1.194c-.078.06-.193.068-.297.149-.37.106-.75.14-1.203.078.037-.243.128-.415.262-.531.994-.864 1.334-2.18.883-3.466-.358-1.02-1.479-1.723-2.633-1.791-.876-.051-1.523.361-2.158.881-.856-.236-1.259-.714-1.211-1.499.05-.822.516-1.242 1.265-1.387l19.594-3.755c2.008-.356 4.091-.255 6.224-.368v-25.871h1.442l.011-6.769 3.438-.812 3.548-.874.079 8.36 1.45.091v25.978l1.497.006 7.238.671c1.742.219 3.462.632 5.191.959z" class="X"/><path d="M495.857 338.909l37.704-.063 14.344-.023 5.251-.01-.028 2.285c-.015.161-.385.397-.599.407l-3.184.03-41.398-.007-.472.014-11.3-.01c-.482.001-.869-.02-.798-.686l.48-1.937z" class="i"/><path d="M507.559 410.141c.003-.406.005-.812.084-1.286a5907.09 5907.09 0 0 1 40.577-.047c.769.002.924-.262.92-1.009l.002-13.6c.007-.791-.219-.982-.946-.981l-39.617.023c-.338 0-.676.105-1.015.16l-.142-15.706a3.219 3.219 0 0 1 .14-.969c.115-.051.144-.05.171.03l-.022 14.682c-.006.807.242 1.041.956.966.503-.053 1.014-.01 1.522-.01l37.983.001c.513 0 .977.1.97-.77l.011-14.943.119-.006.035.927.001 47.309v1.098c-13.912 0-27.751 0-41.664-.012-.075-.013-.074-.078.004-.111l40.565-.018c.66 0 .936-.116.93-.91l-.006-14.525c.003-.627-.17-.818-.771-.818l-39.925.034c-.294.001-.588.321-.882.491z" class="Z"/><path d="M507.548 341.549l.399-.021 41.327.012c.066.458.05.909-.024 1.436-.087.079-.115.081-.216.08l-41.337-.007c-.076-.005-.107-.007-.136-.084l-.013-1.416z" class="a"/><path d="M549.108 343.059l.125-.009c.053.531.073 1.064.073 1.597l-.057 31.272c-.083.074-.112.072-.135-.009l.023-14.771c.003-.642-.141-.875-.8-.874l-39.842.029c-.31 0-.619.212-.929.325-.027-.478-.054-.956.007-1.438.326.083.564.247.801.248l40.021.02c.547.001.743-.159.74-.761l-.027-15.629z" class="Z"/><path d="M549.109 375.988l.128.009c.053.184.063.366.054.613-.019.066-.098.07-.212.07l-41.344-.003-.13-.005a1.092 1.092 0 0 1 .049-.612l41.455-.072z" class="a"/><path d="M432.605 427.105c.644-.578 1.291-.99 2.167-.939 1.154.068 2.275.771 2.633 1.791.451 1.286.111 2.602-.883 3.466-.134.116-.225.288-.329.497-.418.084-.842.106-1.266.127-.939.046-1.708-.334-2.396-.991-.116-.156-.171-.365-.257-.558-.531-1.182-.421-2.292.331-3.393Z"/><path d="M330.411 341.517c-.081-.602-.064-1.193-.108-1.778s.158-.785.723-.776l5.673.009c.291 0 .582-.028.926-.084.125-.045.198-.049.324-.07a.842.842 0 0 1 .341.058c.175.015.27-.007.365-.028l13.042-.031.628.01 35.197-.002.792-.016 5.201.011c-1.574-1.031-3.173-1.865-4.761-2.72a2.76 2.76 0 0 1-.756-.633l12.649-.037 5.036.1a65.085 65.085 0 0 1-1.043 1.972l2.152.46 4.933 1.377c1.358.237 2.729.292 4.043.833 1.209.498 2.473.85 3.669 1.284a2.291 2.291 0 0 1-.477.104 7.874 7.874 0 0 0-.594.017l-.558-.042c-9.035-.001-18.071-.001-27.107.001-.133 0-.266.013-.473.037-.247.005-.421-.007-.66-.008-.597-.001-1.13-.028-1.662-.028l-25.768.024c-.196.007-.318-.002-.573-.014l-3.018.033-.664-.033-1.422.03a1.582 1.582 0 0 0-.272-.017c-2.619 0-5.184-.021-7.748-.024l-18.03-.019z" class="i"/><path d="M461.313 426.536c.305.123.557.258.613.288-.142 1.075-.405 2.017-.351 2.938.06 1.008.813 1.636 1.686 2.121-1.046.368-1.908-.053-2.707-.866-1.051-1.819-.798-3.323.759-4.481zm27.35.387c.641-.288 1.271-.659 1.924-.71 1.364-.108 2.247.535 2.704 1.739s.14 2.506-.825 3.429a3.363 3.363 0 0 0-.447.517 29.464 29.464 0 0 1-2.736-.216c-1.676-1.35-1.871-2.963-.62-4.759z"/><path d="M327.994 349.621a5.325 5.325 0 0 1-.031-.748c.005-.069.059-.06.085-.066.051.243.076.493.062.783-.039.04-.09.027-.116.031Z" class="M"/><path d="M328.002 419.539a274.29 274.29 0 0 1-.054-6.793l.054 6.793zm.002 5.575a124.17 124.17 0 0 1-.056-4.594l.056 4.594z" class="T"/><path d="M358.602 341.618a49.64 49.64 0 0 1 2.902-.058l-2.902.058zm-2.091-.003a9.49 9.49 0 0 1 1.307-.054 9.497 9.497 0 0 1-1.307.054z" class="M"/><path d="M421.525 420.215a3.073 3.073 0 0 1-.142-.605c.146-.015.321-.093.433-.035.317.165.609.386.911.585l-.08.285a18.935 18.935 0 0 1-1.122-.23Z" class="Y"/><path d="M422.684 418.91c.264-.679.507-.307.597.002s.02.679.02 1.021l-.223.082-.394-1.105z" class="M"/><path d="M442.923 368.426l-2.004-.017c-.048-.001-.096-.034-.194-.071v-10.819c1.855-.182 7.759.971 9.489 1.866-1.731 2.723-1.449 5.896-1.734 9.041h-5.557z" class="T"/><path d="M445.465 285.283a1.886 1.886 0 0 1-.209.792c-.272.494-.201.769.318 1.045.26.138.428.58.528.92.217.742.363 1.507.466 2.343-.259.084-.447.11-.629.085-.692-.094-1 .201-.908.942.021.165.017.337.002.503-.053.592.211.792.752.77l2.228-.006c1.141.975 2.37 1.771 3.872 2.148-.341.67-.705 1.313-1.116 1.921-1.252 1.858-1.956 3.947-2.409 6.223l-4.254 1.654-.041-.965.004-17.02c.003-1.469-.272-1.401 1.396-1.355z" class="b"/><path d="M445.782 325.857l1.155-1.572a264.153 264.153 0 0 1 2.652-3.515c.141.445.236.914.306 1.448-.125-.054-.226-.172-.358-.328l-1.44 3.786c-.423.997-1.047 1.907-1.406 2.925-.286.813-.306 1.729-.485 2.607l-.424-5.351z" class="a"/><path d="M448.358 306.834a49.957 49.957 0 0 1-.061-2.971l.061 2.971z" class="b"/><path d="M449.558 318.98a4.732 4.732 0 0 1-.196-.926c.083.248.153.56.196.926zm.435 4.562a1.76 1.76 0 0 1-.084-.562c.054.138.075.317.084.562zm-.346-3.522c-.026-.001-.045-.046-.042-.108.031.01.04.037.042.108z" class="a"/><path d="M419.481 341.438l-3.713-1.266c-1.314-.541-2.685-.596-4.043-.833-1.671-.292-3.286-.922-4.933-1.377-.659-.182-1.338-.289-2.152-.46l1.096-1.994c.5-1.15 1.371-1.53 2.382-1.713.419-.075.821-.293 1.239-.321s.878.015 1.257.184c.828.368 1.578 1.043 2.429 1.218 1.643.336 3.333.412 5.035.63l4.062.529c.735.066 1.482-.011 2.292 0l3.974-.111c.317-.031.591-.556.885-.845 0 .009-.018.012.026.06l2.048-3.254c.004.007-.009.001.046.028.269-.327.508-.667.692-1.037l2.838-5.763c.105-.241.178-.451.309-.66.198-.317.338-.635.49-1l.015-.142.144-.177c.084-.092.093-.137.066-.189l.102-.128c.09-.104.099-.156.074-.213a2.3 2.3 0 0 1 .159-.447l.215-.353 1.578-3.139 5.366 5.832-.373 1.218c-.07.205-.141.348-.217.525-.034.085-.072.099-.116.07.006-.007.02.003-.036.012l-.751 1.693c-.003-.006.009-.004-.048-.022-.343.617-.63 1.253-.917 1.881-.001-.006.012-.007-.046-.015l-1.102 2.098-3.726 6.117c-.032.083-.07.096-.116.065.002-.007.015-.01-.036-.006a5.913 5.913 0 0 0-.495.672l-2.308 2.641c-.272.182-.475.3-.727.426-.069.064-.089.121-.109.171 0-.007.012-.006-.044-.023-.131.054-.205.126-.278.192 0-.007.014-.005-.05-.027-1.741.663-3.493.603-5.31.542l-3.069-.458-3.942-.747a1.02 1.02 0 0 0-.162-.084z" class="f"/><path fill="#1d2f37" d="M446.47 337.122l.219 1.703c-2.248 0-4.385 0-6.606-.084-.016-.824.053-1.565.119-2.296-.003.01-.021.004.026.05.13-.096.213-.236.343-.407a40.825 40.825 0 0 1 2.414-.962l1.228.046-.662 1.456 2.919.494z"/><path d="M446.497 337.053c-.975-.091-1.923-.252-2.946-.425l.711-1.48.737-1.401c.008.005-.005-.007.049.042.13-.121.206-.291.277-.486-.005-.025.028-.061.028-.061l.11.009.773-.15.261 3.952z" class="f"/><path d="M446.259 333.027c-.26.125-.497.176-.75.173.088-.263.289-.477.281-.682l-.319-5.802c-.012-.193-.195-.372-.298-.558l.561-.295.454 5.431a21.4 21.4 0 0 1 .071 1.733z" class="M"/><path d="M432.493 341.865l.658-.363 7.241.014 1.267.066c.055.052.03.078-.089.1-1.572.01-3.061-.026-4.547.027l-4.528.263-.002-.107zm7.712-5.429l-.196 2.284-4.462.096c.081-.234.229-.457.429-.607.118.195.182.423.251.424l3.517.016c-.052-.24-.105-.371-.105-.502.001-.637-.052-1.299.566-1.711z" class="H"/><path d="M432.495 342.008l4.528-.299 4.535-.001c.125.212.179.404.165.641-.182.402-.408.765-.391 1.115a24.54 24.54 0 0 0 .322 3.101c.086.49.406.933.621 1.398 0 0 .003-.017-.005-.019-.502.167-.985.396-1.491.494l-4.685.82-2.552.387-4.706 1.216c-.737.173-1.504.277-2.258.278l-29.666.012c-2.75 0-4.679-1.452-5.883-3.931-.551-1.134-.428-2.479-.416-3.758.005-.52-.172-1.041-.133-1.58l19.07-.041 4.979.025 5.185.019c1.007.041 2.006.265 3.009.405l4.073.57c1.082.015 2.099.104 3.096-.006.725-.08 1.424-.422 2.136-.647 0 0-.014-.002.039-.002.129-.056.205-.112.281-.168 0 0-.012-.001.029-.002.066-.01.092-.019.118-.027z"/><path d="M409.499 341.796l-18.959.057c.126-.06.327-.15.528-.15l18.068-.004c.104 0 .208.035.363.097zm17.223 1.053l-3.999-.559-3.009-.405-5.11-.032 2.481-.156 1.227-.082c.23-.048.407-.058.687-.02.291.015.479-.018.666-.051l3.92.725 3.069.485c.066.041.068.095.068.095zm16.046 3.678l-.351-2.099c-.046-.351-.006-.715.007-1.153l.344 3.252zm.295.971a3.417 3.417 0 0 1-.335-.865c.138.231.24.514.335.865z" class="E"/><path d="M442.314 347.905c-.254-.407-.574-.85-.66-1.34a24.54 24.54 0 0 1-.322-3.101c-.017-.35.209-.713.388-1.053-.028 1.856-.124 3.696.594 5.494Z" class="D"/><path d="M438.077 318.616a114.08 114.08 0 0 1-1.562 3.188 1.032 1.032 0 0 1-.206.289c-17.139.01-34.228.012-51.408-.022-.127-.084-.173-.106-.231-.101-.038-.333-.112-24.462-.084-36.298.063-.149.077-.199.068-.257 0 0 .015-.017.057-.032.087-.041.119-.079.137-.129h55.872c1.222 0 1.222 0 1.222 1.281l.016 18.915c.003.728-.178 1.294-.623 1.823-2.125 2.523-3.694 5.431-5.163 8.4-.125.253-.028.784.157 1.02.524.671 1.147 1.255 1.748 1.923m-27.093-.81c-.133.731-21.673-10.264-21.814-9.483 1.882 0 6.393 1.571 8.048 1.571.236-2.156 18.726 7.886 16.787 7.11-.088-.035-.148-.139-.228-.203-.194-.154-.426-.457-.581-.42-.238.058-.425.352-.633.545-.023-.045 4.117-14.173 4.093-14.219-.477.304 1.391 17.991.836 18.399m19.414-33.619h-1.524c-1.442 0-1.403.001-1.44 1.496-.018.708.238.852.838.833 1.255-.038 2.513.004 3.769-.015 1.652-.025 1.437.329 1.47-1.578.01-.55-.193-.76-.707-.743-.748.025-1.497.007-2.406.007m.321 8.065l1.44-.002c1.502-.026 1.311.26 1.356-1.445.017-.65-.178-.906-.82-.885-1.252.04-2.507.012-3.761.012-1.548.001-1.522 0-1.498 1.631.008.585.233.711.722.694.799-.028 1.6-.006 2.561-.005m-31.588-2.211l-3.983-.104c-1.631-.018-1.654.036-1.565 1.724.022.429.152.598.564.595l4.871-.016c.158-.002.454-.145.45-.207-.037-.658-.123-1.314-.337-1.992m1.24-1.007c.191.114.381.323.574.326l4.812.02c.439.003.646-.185.631-.651-.01-.281-.025-.565.004-.844.058-.566-.179-.732-.693-.72-1.256.028-2.513.007-3.77.007-1.597 0-1.597.001-1.558 1.862m-3.664-4.737c-.772 0-1.547.038-2.316-.012-.636-.042-.893.193-.803.859.022.165.021.338.001.504-.079.64.128.9.787.871 1.223-.053 2.449-.015 3.674-.015 1.64 0 1.64 0 1.48-1.716-.003-.028.009-.07-.005-.083-.166-.154-.33-.425-.506-.434-.715-.035-1.434.01-2.312.026m-12.674 8.622c-.879 0-1.759-.009-2.638.003-1.444.018-1.254-.221-1.305 1.416-.021.655.216.81.79.796 1.358-.035 2.718-.01 4.077-.01 1.086 0 1.086-.001 1.086-1.128-.001-1.076-.001-1.076-1.051-1.077h-.959m6.098-3.544l1.356-.001c1.435-.026 1.259.255 1.306-1.404.017-.629-.173-.83-.77-.811-1.302.042-2.607.005-3.91.015-1.387.011-1.246-.203-1.262 1.366 0 .056.006.113 0 .169-.058.517.166.691.646.674.824-.029 1.649-.008 2.634-.008m-10.029-4.436c0 .169.022.341-.004.506-.133.847.17 1.135.999 1.079 1.17-.079 2.348-.02 3.522-.02 1.531 0 1.517.001 1.432-1.615-.023-.426-.147-.601-.564-.597-1.601.014-3.203-.011-4.804.027-.196.004-.386.301-.581.62m38.728-.642c-1.414 0-2.829-.018-4.242.019-.213.005-.579.239-.602.409-.076.563-.029 1.145-.029 1.778l5.416-.006c.148-.001.42-.077.424-.135.043-.609.089-1.227.017-1.827-.014-.115-.539-.161-.984-.238m2.771 2.208l3.601-.001c1.551.001 1.54.002 1.453-1.598-.023-.414-.131-.617-.556-.613-1.627.014-3.255-.01-4.881.031-.176.005-.428.314-.496.534-.086.279.007.614-.027.919-.071.632.235.793.906.728m-20.002 14.521c.161.143-12.421 6.069-20.153 3.714.067-2.248 20.82-5.432 20.153-5.287v1.573m5 7.508c.07-.052 2.533 1.969 2.272 1.972m-4.69-5.182c.066.581-4.289 5.639-4.289 4.98-.064-.048 4.757-6.516 4.693-6.564-.135.17 6.457 6.9 6.414 7.093-.066.29-6.818-5.97-6.818-5.509zm-58.967 13.658l-.053-5.086c.007-.644-.149-.899-.801-.866-1.086.055-2.177.018-3.343.009-.063-.488-.038-.965-.038-1.444l.002-28.375c0-1.265.001-1.266 1.159-1.266l32.789-.02c.811-.002 1.023.212 1.021 1.073a7472.547 7472.547 0 0 0-.003 34.793c.002.824-.229 1.022-.988 1.021-9.78-.023-19.561-.011-29.464.011a.768.768 0 0 0-.281.15m26.076-33.095c.15.205.291.578.45.587.983.054 1.971.045 2.955.003.144-.006.374-.284.399-.461.235-1.692.114-1.829-1.478-1.829-.293 0-.587-.001-.88.001-1.596.007-1.438-.177-1.446 1.699m-28.918 6.364l1.752-.002c1.623-.042 1.457.394 1.472-1.642.004-.517-.216-.69-.678-.679-.769.018-1.541.036-2.309-.005-.617-.034-.896.192-.831.861.03.304-.048.63.025.917.053.207.275.365.569.55m30.439.668c-1.632.001-1.619 0-1.53 1.603.024.422.144.612.564.603.881-.019 1.763.009 2.644-.016.188-.005.522-.134.532-.234.057-.58.105-1.184-.005-1.744-.027-.138-.652-.17-1.006-.204-.344-.034-.694-.008-1.199-.008m-10.958-5.745c-.829 0-1.659.026-2.486-.011-.546-.024-.807.154-.737.761.029.25.018.507.004.76-.029.504.18.711.663.697.775-.023 1.553.034 2.324-.026.275-.021.776-.332.759-.429-.105-.584.49-1.363-.527-1.752m-14.226-.67h.718c1.533.002 1.514.002 1.441-1.596-.022-.489-.204-.628-.631-.616-.718.021-1.44.056-2.153-.009-.798-.072-1.098.204-1.05 1.076.064 1.14.013 1.143 1.119 1.145h.556m17.94.001c.483-.038 1.099.237 1.064-.743-.062-1.745.123-1.435-1.425-1.464a25.496 25.496 0 0 0-.958 0c-1.449.027-1.318-.272-1.326 1.465 0 .028.003.056 0 .084-.062.527.182.687.653.664.611-.029 1.224-.007 1.992-.006m1.54 1.465c.02 1.601-.184 1.387 1.309 1.405h.961c1.551 0 1.538.001 1.451-1.605-.023-.424-.147-.61-.565-.602a61.33 61.33 0 0 1-2.644.002c-.457-.01-.538.254-.512.8z" class="b"/><path d="M440.202 336.445c-.615.403-.562 1.065-.563 1.702 0 .131.053.262.105.502-1.206 0-2.362.006-3.517-.016-.069-.001-.133-.229-.2-.427-.001-.077-.014-.074.007-.081a.188.188 0 0 0 .098-.085l3.775-6.1 1.106-2.073s-.013.001.042-.013l.92-1.843s-.012-.002.044-.017l.754-1.681s-.014-.01.005-.017c.057-.022.083-.05.097-.09l.274-.496c.307-.692.649-.684 1.065-.242.028.029.099.013.15.018v.048c.107.136.215.212.322.287 0 0 .002-.015.014.022.086.114.16.192.235.271l.178.035c.163.195.346.374.358.567l.319 5.802c.008.205-.193.419-.343.679-.046.051-.094.045-.094.045s-.033.036-.074.102l-.285.396s.013.012-.047.028c-.446.792-.948 1.365-1.89 1.185-.037-.008-.094.099-.141.152a154.8 154.8 0 0 1-2.404.981c-.182.141-.256.252-.331.363 0 0 .018.006.021-.004z"/><path d="M435.676 323.297c.077.046.076.078-.013.137l-4.364.018-76.855-.013-.474.017c-.785-.003-1.495 0-2.204.003a.602.602 0 0 1 .011-.141l82.938-.044.961.023z" class="V"/><path d="M444.376 325.429c-.063.052-.134.068-.162.039-.416-.442-.758-.45-1.065.18.06-.346.183-.696.343-1.098.323.24.609.531.884.879zm.319.332c-.116-.015-.224-.091-.337-.227.111.015.229.092.337.227zm.234.308c-.069-.034-.143-.112-.236-.227a.824.824 0 0 1 .236.227z" class="H"/><path d="M351.729 322.321a.418.418 0 0 1 .2-.18c.009.076-.031.162-.115.267-.043.02-.078-.049-.085-.087zm32.945-.317c.054-.039.1-.017.151.07-.038.013-.093-.011-.151-.07zm-.051-36.564c.04.033.026.083-.038.155-.04-.031-.028-.083.038-.155zm51.487 37.184c.056.037.047.089-.031.15-.047-.038-.035-.087.031-.15zm-.172.338c.054.035.045.08-.032.13-.04-.035-.027-.077.032-.13zm-51.125-37.699c.017.041-.015.079-.095.111-.017-.043.015-.079.095-.111z" class="V"/><path fill="#0e437e" d="M346.115 328.833c-2.373.612-4.597-.483-5.514-2.668-.908-2.164-.199-4.667 1.703-6.013 2.112-1.495 5.095-.777 6.417 1.545 1.349 2.367.595 5.393-1.672 6.695-.28.161-.579.286-.934.441Z"/><path d="M345.515 335.809c-1.017.347-1.846.026-2.424-.74-.538-.713-.827-1.581-.327-2.506.507-.94 1.238-1.461 2.291-1.339.864.1 1.523.57 1.797 1.443.257.816.329 1.671-.351 2.35-.284.284-.615.517-.986.792Z" class="c"/><path d="M351.745 323.529a15.32 15.32 0 0 1 2.227-.042c.076.037.079.099.012.111l-1.86.012v.884l-.018 13.085c-.008.84.183 1.095 1.012 1.093l34.14-.02c.213 0 .432.021.637-.024.073-.016.112-.2.219-.292.077.164.102.312.127.461l-.719.028-35.197.002c-.161 0-.321-.011-.551-.03a862.391 862.391 0 0 1-.029-15.268z" class="H"/><path fill="#024aa0" d="M338.599 338.83c-.039.039-.134.061-.256.05.048-.044.124-.056.256-.05Z"/><path d="M448.007 292.621l-2.222.062c-.541.022-.805-.178-.752-.77a2.35 2.35 0 0 0-.002-.503c-.092-.741.216-1.036.908-.942.182.025.37-.001.63-.021.527.695.979 1.407 1.438 2.174z" class="e"/><path d="M402.162 420.505c-.21-.23-.362-.44-.514-.65.26.012.536-.029.776.051.211.072.38.279.545.62-.25 0-.499 0-.807-.021Z" class="M"/><path d="M403.626 419.876c-.15.04-.392.046-.417-.029-.119-.35-.177-.723-.29-1.238.835.238.689.761.707 1.267Z" class="Y"/><path d="M402.72 419.545c.003.035-.025.095-.071.119-.018-.036.039-.094.071-.119Z" class="E"/><path d="M529.075 336.294l-3.669.137c-9.256.008-18.513-.001-27.85-.075a1.263 1.263 0 0 1-.128-.455c.285-.365.529-.78.862-1.087 2.051-1.892 3.405-4.208 4.043-7.058.352.011.613.077.874.077l25.993.065c-.058.37-.122.673-.123.977l-.002 7.419z" class="h"/><path fill="#0761b9" d="M504.7 295.376c.211-.108.42-.308.629-.308l25.263-.024c.556-.001.734.173.733.766l-.008 29.738c0 .414.03.779-.552.775l-9.544-.023c-.073 0-.146-.052-.318-.117l.057-1.833c1.273-.136 2.488-.162 3.731-.152.738.13.355-.46.356-.668l.019-26.402-.043-.875h-19.675a9.198 9.198 0 0 1-.299-.378c-.09-.111-.13-.149-.17-.187l-.04-.14c-.048-.124-.087-.157-.141-.171l.002-.001z"/><path d="M524.664 324.162l-3.706.111a49.962 49.962 0 0 1-.059-3.662c.012-.547-.161-.739-.685-.727l-4.123.01c-.256 0-.376 0-.496-.075.157-.95-.219-1.159-1.004-1.122l-4.359.022c-1.738-.004-3.4.003-5.062-.014-.275-.003-.548-.11-.821-.169l.847-3.666c.551-.041.985-.038 1.418.042l-.008 1.255c-.033.498.133.7.633.694l5.991-.002c.447.004.609-.164.606-.637l-.027-6.9c-.003-.195-.296-.385-.456-.656l.014-6.665c.017-.79-.164-1.079-.962-1.053l-5.449.008-1.228-4.179 18.97-.083v1.224l-.002 23.799-.032 2.445m-.888-16.012l.005-8.359c.003-.639-.183-1.025-.859-1.023l-7.293.005c-.667.001-1.011.279-1.008 1.068l-.001 17.561c-.002.628.172.823.773.816l7.453.003c.766.013.952-.285.943-1.037l-.013-9.034z" class="c"/><path fill="#0761b9" d="M529.224 327.832l-26.017.001c-.261 0-.522-.066-.841-.132-.02-.274.019-.518.109-.851.066-.149.078-.21.091-.27.006-.109.013-.218.069-.413.06-.149.072-.213.083-.277-.003-.055-.007-.111.054-.244.082-.242.1-.406.119-.57.007-.113.015-.227.06-.409.074-.12.067-.165.016-.205l.35-1.418c.164.304.26.662.373 1.085h.876l11.939.007c.338.001.677.098 1.015.151l-.005.08.169 2.61 11.866.03c.481.001.962.009 1.52.087.079.238.081.403.013.574l-1.859.164z"/><path d="M506.123 310.601l.701-3.792.478-3.525a22.068 22.068 0 0 1 2.105-1.461c.632.462 1.344.808 1.754 1.391.922 1.309 1.179 2.885 1.158 4.525-.12.525-.17 1.024-.254 1.517-.355 2.086-.794 4.116-3.215 4.723-.543-.317-1.154-.531-1.474-.976-.518-.72-.845-1.593-1.253-2.402m4.489-3.215c-.107-.375-.128-.822-.342-1.107-.311-.415-.755-.974-1.156-.986-.359-.01-.871.565-1.076 1.006-.526 1.13-.442 2.32.003 3.486.198.52.527.949 1.058.784.431-.133.976-.456 1.132-.846.267-.668.271-1.453.381-2.337z" class="d"/><path d="M517.521 324.208c-.339.026-.678-.071-1.016-.072l-11.939-.007h-.876l-.362-1.148c.044-.48.145-.95.325-1.489l6.722-.075 5.172.002c.021-.357.035-.603.11-.848h.419c.187 0 .376.021.56-.002.687-.084.898.293.887.946l-.002 2.693z" class="c"/><path d="M512.374 307.71c-.034-1.611-.291-3.187-1.213-4.496-.41-.583-1.122-.929-1.789-1.446-1.057-.297-1.627.361-2.214.98l-.201-1.72 5.448-.08c.798-.026.979.263.962 1.053l-.016 6.743.011 5.281c.013.624-.167.826-.767.816l-5.979-.006-1.377-.009.841-4.184c.451.768.778 1.641 1.296 2.361.32.445.931.659 1.49 1.027.518-.013 1.023.05 1.384-.162 1.463-.858 2.691-4.393 2.184-6.103-.007-.023-.039-.037-.06-.055z" class="W"/><path d="M482.384 421.7l-5.195-.882-7.238-.671c-.474-.041-.954-.006-1.497-.006v-25.978l-1.45-.091-.015-8.363-.016-3.654 15.36.023.051 39.622m-8.873-1.765l8.607 1.405v-38.97h-14.685v11.348c1.258.068 1.441.326 1.188 1.483-.035.161-.028.335-.028.503l-.012 23.485c-.001.633.304.743.773.743l4.157.003z" class="E"/><path d="M524.691 324.198l.005-2.481.002-23.799v-1.224l-18.976.021a1.058 1.058 0 0 1-.372-.412l19.673-.05.043.875-.019 26.402c-.001.208.382.798-.356.668z" class="D"/><path fill="#0e437e" d="M507.475 341.542c.078.454.083.901.054 1.427-.034.08-.099.089-.099.089-3.784-.003-7.569.002-11.353-.021-.448-.003-.707.118-.813.641-.021-.879.002-1.802.069-2.778-.027.612.36.633.842.632l11.3.01z"/><path d="M510.3 321.416l-6.642.009c.155-.931.382-1.865.65-2.844.314.014.587.121.862.124l5.06.085c.073.408.073.742-.001 1.088l-2.225.069.022.358 2.278.069-.004 1.042z" class="X"/><path d="M507.168 302.791c.577-.662 1.147-1.32 2.147-1.032-.63.509-1.295.962-1.996 1.449-.071-.102-.106-.238-.151-.417Z" class="D"/><path d="M497.389 335.93c.055.1.071.228.094.419-.092.045-.192.028-.325-.031.041-.149.117-.254.231-.388Z" class="b"/><path d="M502.853 325.123c.019.117.001.281-.066.483-.023-.12.002-.279.066-.483zm-.321 1.488c.021.029.009.09-.038.18-.022-.03-.009-.09.038-.18zm.419-2.11c.067.001.074.046.014.111-.025-.015-.027-.043-.014-.111zm-.267 1.423c.023.03.011.094-.035.19-.024-.031-.012-.094.035-.19z" class="h"/><path d="M504.707 295.416c.045-.025.084.008.115.101-.043.021-.081-.013-.115-.101zm.179.316c.033-.006.073.032.125.111-.032.006-.075-.03-.125-.111z" class="W"/><path d="M545.679 296.1c-.262-.178-.542-.292-.664-.507-.362-.637-.355-1.34.175-1.835.25-.234.785-.326 1.117-.222.628.197.761.854.666 1.448-.108.674-.474 1.184-1.294 1.116Z" class="d"/><path d="M529.2 327.898c.62-.119 1.217-.172 1.924-.228l.192-.002-.001 7.47c0 1.154-.001 1.154-1.135 1.155l-1.031.002-.072-7.42c.001-.304.065-.607.123-.977z" class="b"/><path d="M518.937 324.16c.006.531.058 1.069-.004 1.591-.024.206-.305.378-.469.566-.151-.174-.432-.348-.431-.52.004-.537.114-1.074.296-1.645.278-.021.443-.007.608.008Z" class="d"/><path d="M516.076 320.503c-.12.068-.24.068-.495.068-1.039 0-1.943.018-2.846-.012-.226-.007-.448-.168-.599-.274l2.07-.036c.145-.008.279-.228.487-.354l.902-.001.421.001c.06.18.06.361.06.608z" class="X"/><path d="M518.944 324.085c-.172.06-.337.046-.565.026a30.778 30.778 0 0 1-.115-2.843c.001-.163.164-.326.253-.49.095.164.26.32.274.491l.153 2.816z" class="c"/><path d="M520.254 324.677l-.019 1.246c-.016.137-.201.254-.309.38-.11-.124-.304-.239-.317-.373a7.934 7.934 0 0 1-.007-1.335c.011-.158.159-.306.244-.458.136.154.272.309.408.54z" class="h"/><path d="M517.683 326.9a140.54 140.54 0 0 1-.167-2.533l.167 2.533z" class="c"/><path d="M531.318 327.607c-.03.061-.057.06-.125.058-.042-.168-.044-.333-.05-.559.057.106.117.273.175.501Z" class="d"/><path fill="#007cff" d="M549.034 343.056l.101 15.632c.003.602-.193.762-.74.761l-40.021-.02c-.237-.001-.475-.165-.764-.293l-.002-14.871.135-1.213 41.291.004m-26.561 3.881l-.751.417c.249.14.49.305.752.411.14.056.317.01.477.01h10.821c.294 0 .594.033.878-.025.132-.026.339-.254.322-.352-.03-.167-.185-.374-.335-.436-.186-.077-.421-.025-.634-.025h-11.53zm-14.912 63.283c.292-.249.586-.569.88-.57l39.925-.034c.601 0 .774.191.771.818l.006 14.525c.006.794-.27.91-.93.91l-40.561-.015c-.075 0-.079-.002-.079-.048a1.375 1.375 0 0 0-.012-.134V410.22m18.381 3.461l8.33-.017c.243-.003.484-.25.726-.384-.23-.146-.46-.418-.691-.42a983.174 983.174 0 0 0-11.774-.003c-.223.002-.444.232-.667.355.238.156.47.436.713.448l3.363.021z"/><path fill="#007cfe" d="M549.114 375.91l-41.455.082-.094-15.294c.311-.192.62-.404.93-.404l39.842-.029c.659-.001.803.232.8.874l-.023 14.771m-18.84-11.739l4.241-.016c.157-.002.31-.199.466-.306-.145-.118-.278-.264-.44-.343-.111-.053-.262-.012-.396-.012-3.815 0-7.629-.008-11.444.016-.276.001-.551.227-.827.349.266.104.53.296.797.298l7.603.014zm-22.71 29.31c.339-.135.677-.24 1.015-.24l39.617-.023c.727-.001.953.19.946.981a963.345 963.345 0 0 0-.002 13.6c.004.747-.151 1.011-.92 1.009l-40.575-.02-.081-15.307m23.351 3.646l3.602-.016c.157-.004.31-.202.465-.31-.145-.119-.277-.266-.44-.345-.11-.054-.262-.012-.395-.012-3.816-.001-7.632-.008-11.447.015-.276.002-.551.23-.826.353.265.105.53.299.796.301l8.245.014z"/><path d="M507.697 343.049c.016.366-.013.729-.09 1.137-.092-.3-.138-.645-.18-1.059.003-.069.068-.078.101-.082.062-.003.093-.001.169.004zm-.16 82.642c.028.01.032.04.036.113-.02-.002-.04-.048-.036-.113z" class="Z"/><path fill="#007cff" d="M507.733 376.756l41.306-.074.103 14.943c.007.87-.457.77-.97.77l-37.983-.001c-.508 0-1.019-.043-1.522.01-.714.075-.962-.159-.956-.966l.022-14.682m25.106 3.973l1.759-.024c.142-.011.368-.246.372-.386s-.199-.338-.354-.409-.367-.021-.554-.021h-9.924c-.614 0-1.23-.028-1.84.023-.156.013-.293.278-.439.427.138.128.259.307.421.372s.368.018.555.018h10.004z"/><path d="M418.047 335.472l-5.004-.596c-.851-.175-1.601-.85-2.429-1.218-.379-.169-.84-.211-1.257-.184s-.82.246-1.239.321c-1.011.183-1.882.563-2.377 1.655-1.734.007-3.414-.02-5.094-.02-4.189-.002-8.378.008-12.694.032-.213.128-.39.253-.374.341.142.805.318 1.602.423 2.376-.506-.97-.972-1.908-.9-3.078h.839l16.518-.015c.39-.001.909-.09 1.145-.357.702-.794 1.574-1.114 2.526-1.314.229-.048.473-.054.684-.144.749-.32 1.496-.357 2.162.145 1.851 1.395 3.992 1.512 6.147 1.703 2.523.224 5.138-.7 7.569.656 1.543-.163 3.199.489 4.6-.706-.295.299-.569.824-.886.855-1.294.127-2.602.103-4.02.082-.577-.228-1.036-.541-1.503-.555-1.61-.049-3.224.006-4.836.021z" class="H"/><path d="M388.063 338.205l-.484-2.402c-.016-.088.161-.213.293-.317.323.21.582.453.882.614l4.761 2.72c-1.709 0-3.419 0-5.201-.011-.098-.161-.123-.309-.212-.502-.064-.044-.039-.102-.039-.102z" class="W"/><path d="M419.643 341.522a1.752 1.752 0 0 1-.579.086c.084-.068.206-.101.373-.152a.347.347 0 0 1 .206.066Z" class="D"/><path d="M388.002 338.179c.061.026.036.084.048.113-.043.136-.082.32-.155.336-.205.045-.424.024-.637.024-11.38 0-22.76-.009-34.14.02-.829.002-1.02-.253-1.012-1.093l.018-13.085v-.884h1.934l76.749.002c.186 0 .373-.017.634-.012l3.787.014-.036.838c-.073.21-.146.42-.314.655-.143.037-.221.033-.236.065l-2.322 4.625c-.338.687-.644 1.392-.964 2.089 0 0 .013.006-.05.005-.72 1.066-1.376 2.133-2.033 3.2 0 0 .018-.003.018-.012-1.4 1.185-3.056.533-4.599.696-2.431-1.356-5.046-.432-7.569-.656-2.155-.191-4.296-.308-6.147-1.703-.666-.502-1.413-.465-2.162-.145-.211.09-.455.096-.684.144-.952.2-1.824.52-2.526 1.314-.236.267-.755.356-1.145.357l-16.518.015h-.839c-.072 1.17.394 2.108.9 3.078z"/><path d="M418.078 335.506l4.805-.055c.467.014.926.327 1.434.532-.695.041-1.442.118-2.177.052l-4.062-.529z" class="V"/><path d="M431.411 331.913a21.66 21.66 0 0 1 .909-2.116l2.322-4.625c.015-.032.093-.028.204-.034l-2.743 5.738c-.184.37-.423.71-.692 1.037zm-2.094 3.226a43.917 43.917 0 0 1 1.985-3.254 44.125 44.125 0 0 1-1.985 3.254z" class="H"/><path d="M426.796 342.86c-.074-.011-.076-.065-.076-.092 1.751.02 3.503.08 5.244-.583-.648.247-1.347.589-2.072.669-.997.11-2.014.021-3.096.006Z" class="D"/><path d="M435.25 324.453c-.047-.25-.037-.498-.022-.839-1.252 0-2.483 0-3.786-.045-.073-.045-.069-.108-.069-.108l4.28.02a2.85 2.85 0 0 1-.403.972z" class="H"/><path d="M440.955 329.859a17.863 17.863 0 0 1-1.025 2.027c.286-.667.627-1.351 1.025-2.027zm.963-1.866a13.992 13.992 0 0 1-.862 1.867c.232-.614.519-1.25.862-1.867zm.799-1.671a12.204 12.204 0 0 1-.695 1.678 12.03 12.03 0 0 1 .695-1.678z" class="E"/><path d="M432.292 342.02c-.02.073-.096.129-.226.192.021-.066.095-.138.226-.192Z" class="D"/><path d="M442.869 326.24c-.008.006-.034.034-.097.063.025.036.063.022.097-.063Z" class="E"/><path d="M436.127 338.074c-.013 0-.039.026-.095.057.025.039.063.026.095-.057Z" class="H"/><path d="M432.495 341.972c-.026.044-.052.053-.118.069-.021-.048-.001-.105.068-.169.048-.007.049.064.05.1Z" class="D"/><path d="M442.985 335.126c-.022-.074.035-.181.072-.173.942.18 1.444-.393 1.883-1.19-.174.419-.401.859-.678 1.324a12.2 12.2 0 0 1-1.277.039Z" class="E"/><path d="M440.228 336.495a.598.598 0 0 1 .236-.378.596.596 0 0 1-.236.378Z" class="H"/><path d="M445.048 333.789c.027-.159.108-.27.236-.421-.03.13-.106.3-.236.421Z" class="E"/><path d="M436.986 287.487l2.326-.007c.514-.017.717.193.707.743-.033 1.907.182 1.553-1.47 1.578-1.256.019-2.514-.023-3.769.015-.6.019-.856-.125-.838-.833.037-1.495-.002-1.496 1.44-1.496h1.604zm.16 8.065c-.88-.001-1.681-.023-2.48.005-.489.017-.714-.109-.722-.694-.024-1.631-.05-1.63 1.498-1.631l3.761-.012c.642-.021.837.235.82.885-.045 1.705.146 1.419-1.356 1.445l-1.521.002zm-31.436-2.201c.143.668.229 1.324.266 1.982.004.062-.292.205-.45.207l-4.871.016c-.412.003-.542-.166-.564-.595-.089-1.688-.066-1.742 1.565-1.724l4.054.114zm1.159-1.092c-.029-1.786-.029-1.787 1.568-1.787l3.77-.007c.514-.012.751.154.693.72-.029.279-.014.563-.004.844.015.466-.192.654-.631.651-1.604-.011-3.208.007-4.812-.02-.193-.003-.383-.212-.584-.401zm-3.574-4.662l2.232-.026c.176.009.34.28.506.434.014.013.002.055.005.083.16 1.716.16 1.716-1.48 1.716-1.225 0-2.451-.038-3.674.015-.659.029-.866-.231-.787-.871.02-.166.021-.339-.001-.504-.09-.666.167-.901.803-.859.769.05 1.544.012 2.396.012zm-12.675 8.622h.88c1.05.001 1.05.001 1.051 1.077 0 1.127 0 1.128-1.086 1.128-1.359 0-2.719-.025-4.077.01-.574.014-.811-.141-.79-.796.051-1.637-.139-1.398 1.305-1.416l2.717-.003zm5.939-3.544c-.905 0-1.73-.021-2.554.008-.48.017-.704-.157-.646-.674.006-.056 0-.113 0-.169.016-1.569-.125-1.355 1.262-1.366l3.91-.015c.597-.019.787.182.77.811-.047 1.659.129 1.378-1.306 1.404l-1.436.001zm-9.948-4.514c.194-.241.384-.538.58-.542l4.804-.027c.417-.004.541.171.564.597.085 1.616.099 1.615-1.432 1.615-1.174 0-2.352-.059-3.522.02-.829.056-1.132-.232-.999-1.079.026-.165.004-.337.005-.584zm38.805-.564c.367.077.892.123.906.238.072.6.026 1.218-.017 1.827-.004.058-.276.134-.424.135l-5.416.006c0-.633-.047-1.215.029-1.778.023-.17.389-.404.602-.409l4.32-.019zm2.617 2.208c-.595.065-.901-.096-.83-.728.034-.305-.059-.64.027-.919.068-.22.32-.529.496-.534l4.881-.031c.425-.004.533.199.556.613.087 1.6.098 1.599-1.453 1.598l-3.677.001zm-50.235-.695c.008-1.799-.15-1.615 1.446-1.622l.88-.001c1.592 0 1.713.137 1.478 1.829-.025.177-.255.455-.399.461-.984.042-1.972.051-2.955-.003-.159-.009-.3-.382-.45-.664zm-28.992 6.439c-.22-.183-.442-.341-.495-.548-.073-.287.005-.613-.025-.917-.065-.669.214-.895.831-.861.768.041 1.54.023 2.309.005.462-.011.682.162.678.679-.015 2.036.151 1.6-1.472 1.642h-1.826zm30.592.67l1.12.008c.354.034.979.066 1.006.204.11.56.062 1.164.005 1.744-.01.1-.344.229-.532.234-.881.025-1.763-.003-2.644.016-.42.009-.54-.181-.564-.603-.089-1.603-.102-1.602 1.609-1.603zm-10.963-5.743c.943.387.348 1.166.453 1.75.017.097-.484.408-.759.429-.771.06-1.549.003-2.324.026-.483.014-.692-.193-.663-.697.014-.253.025-.51-.004-.76-.07-.607.191-.785.737-.761l2.56.013zm-14.379-.672h-.477c-1.106-.002-1.055-.005-1.119-1.145-.048-.872.252-1.148 1.05-1.076.713.065 1.435.03 2.153.009.427-.012.609.127.631.616.073 1.598.092 1.598-1.441 1.596h-.797zm17.941.001c-.69-.001-1.303-.023-1.914.006-.471.023-.715-.137-.653-.664.003-.028 0-.056 0-.084.008-1.737-.123-1.438 1.326-1.465h.958c1.548.029 1.363-.281 1.425 1.464.035.98-.581.705-1.142.743zm1.618 1.386c-.026-.467.055-.731.512-.721a61.33 61.33 0 0 0 2.644-.002c.418-.008.542.178.565.602.087 1.606.1 1.605-1.451 1.605h-.961c-1.493-.018-1.289.196-1.309-1.484z" class="e"/><path fill="#80ffff" d="M431.299 323.452c.074.009.07.072.069.103-.188.04-.375.057-.561.057-25.536 0-51.073-.001-76.683-.014-.073-.012-.076-.074-.078-.106.131-.038.265-.053.398-.053l76.855.013z"/><path fill="#143f64" d="M523.776 308.234l.013 8.95c.009.752-.177 1.05-.943 1.037a243.642 243.642 0 0 0-7.453-.003c-.601.007-.775-.188-.773-.816l.001-17.561c-.003-.789.341-1.067 1.008-1.068l7.293-.005c.676-.002.862.384.859 1.023l-.005 8.443m-2.733 3.622v-8.359c0-1.639 0-1.624-1.524-1.529-.409.025-.564.168-.563.601l.017 10.47c.001.199.138.503.292.58 1.154.577 1.776.151 1.778-1.176v-.587m-4.316-6.072l.013 7.161c.003.292.186.582.285.873.256-.165.316-.239.316-.312l.004-11.036c0-.155-.204-.31-.314-.465-.101.165-.285.326-.29.493l-.014 3.286m1.117 3.549l.013 3.537c.006.252.186.499.286.749.111-.239.317-.476.319-.716a804.94 804.94 0 0 0-.001-10.19c-.001-.236-.212-.471-.325-.707-.097.252-.277.504-.279.757l-.013 6.57m-1.453 1.352l-.013-7.92c-.002-.254-.18-.507-.277-.76-.114.262-.32.521-.328.787l-.016 3.454.015 6.655c.002.241.205.479.314.719.102-.248.275-.492.291-.746.041-.671.014-1.347.014-2.189zm-9.777 4.227l5.981-.071c.6.01.78-.192.767-.816l-.009-5.201c.16.113.453.303.456.498l.027 6.9c.003.473-.159.641-.606.637-1.997-.016-3.995-.02-5.991.002-.5.006-.666-.196-.633-.694.026-.391.006-.785.008-1.255z"/><path d="M515.595 319.819c-.278.075-.555.074-.976.074l-4.316-.028.002-1.072 4.286-.096c.785-.037 1.161.172 1.004 1.122z" class="g"/><path d="M510.614 307.46c-.112.81-.116 1.595-.383 2.263-.156.39-.701.713-1.132.846-.531.165-.86-.264-1.058-.784-.445-1.166-.529-2.356-.003-3.486.205-.441.717-1.016 1.076-1.006.401.012.845.571 1.156.986.214.285.235.732.344 1.181m-2.31-.855c-.018.843-.117 1.698-.011 2.523.04.308.545.725.869.758.253.026.75-.434.793-.733.114-.799.192-1.669.006-2.434-.249-1.023-.922-1.068-1.657-.114Z" class="V"/><path d="M512.319 307.739c.076-.011.108.003.115.026.507 1.71-.721 5.245-2.184 6.103-.361.212-.866.149-1.321.161 2.342-.657 2.781-2.687 3.136-4.773l.254-1.517z" class="D"/><path d="M512.063 320.301c.224.09.446.251.672.258l2.786.012c.061.245.047.491.026.848-1.725 0-3.411 0-5.172-.002-.073-.326-.072-.65.001-1.059.609-.076 1.148-.066 1.687-.057z" class="g"/><path d="M473.435 419.935c-1.411-.001-2.746 0-4.081-.003-.469 0-.774-.11-.773-.743l.012-23.485c0-.168-.007-.342.028-.503.253-1.157.07-1.415-1.188-1.483V382.37h14.685v38.97a2121.44 2121.44 0 0 0-8.683-1.405z"/><path d="M512.136 320.285c-.612.007-1.151-.003-1.761.004l-2.349.016-.022-.358 2.225-.069 4.32.018c-.064.125-.198.345-.343.353l-2.07.036z" class="E"/><path d="M522.547 346.937h11.456c.213 0 .448-.052.634.025.15.062.305.269.335.436.017.098-.19.326-.322.352-.284.058-.584.025-.878.025h-10.821c-.16 0-.337.046-.477-.01-.262-.106-.503-.271-.752-.411l.825-.417zm3.315 66.744c-1.148 0-2.217.028-3.283-.021-.243-.012-.475-.292-.713-.448.223-.123.444-.353.667-.355l11.774.003c.231.002.461.274.691.42-.242.134-.483.381-.726.384l-8.41.017z" class="Z"/><path d="M530.193 364.171c-2.561 0-5.042.009-7.522-.014-.267-.002-.531-.194-.797-.298.276-.122.551-.348.827-.349l11.444-.016c.134 0 .285-.041.396.012.162.079.295.225.44.343-.156.107-.309.304-.466.306l-4.322.016z" class="a"/><path d="M530.835 397.127c-2.775 0-5.47.008-8.165-.014-.266-.002-.531-.196-.796-.301.275-.123.55-.351.826-.353l11.447-.015c.133 0 .285-.042.395.012.163.079.295.226.44.345-.155.108-.308.306-.465.31l-3.682.016zm1.924-16.398h-9.924c-.187 0-.392.047-.555-.018s-.283-.244-.421-.372c.146-.149.283-.414.439-.427.61-.051 1.226-.023 1.84-.023h9.924c.187 0 .396-.051.554.021s.358.272.354.409-.23.375-.372.386c-.583.046-1.172.022-1.839.024z" class="Z"/><path d="M521.043 311.938v.505c-.002 1.327-.624 1.753-1.778 1.176-.154-.077-.291-.381-.292-.58l-.017-10.47c-.001-.433.154-.576.563-.601 1.524-.095 1.524-.11 1.524 1.529v8.441z" class="h"/><path d="M516.727 305.699l.014-3.201c.005-.167.189-.328.29-.493.11.155.314.31.314.465l-.004 11.036c0 .073-.06.147-.316.312-.099-.291-.282-.581-.285-.873l-.013-7.246zm1.117 3.549l.013-6.485c.002-.253.182-.505.279-.757.113.236.324.471.325.707l.001 10.19c-.002.24-.208.477-.319.716-.1-.25-.28-.497-.286-.749l-.013-3.622zm-1.453 1.521l-.014 2.105c-.016.254-.189.498-.291.746-.109-.24-.312-.478-.314-.719l-.015-6.655.016-3.454c.008-.266.214-.525.328-.787.097.253.275.506.277.76l.013 8.004z" class="d"/><path d="M508.334 306.547c.705-.896 1.378-.851 1.627.172.186.765.108 1.635-.006 2.434-.043.299-.54.759-.793.733-.324-.033-.829-.45-.869-.758-.106-.825-.007-1.68.041-2.581m.145.323-.122.598c.674-1.218.785.445 1.254.203v-.965c-.367.02-.704.038-1.132.164Z" class="E"/><path d="M508.524 306.816c.383-.072.72-.09 1.087-.11v.965c-.469.242-.58-1.421-1.254-.203l.167-.652z"/><path d="M580.642 97.656H727.67v12.78H580.642z" class="U"/><path d="M579.11 63.12h150.294c2.965 0 5.368 1.954 5.368 4.365v27.931c0 2.411-2.403 4.365-5.368 4.365H579.11c-2.965 0-5.368-1.954-5.368-4.365V67.485c0-2.411 2.403-4.365 5.368-4.365z" class="N"/><path d="M576.457 63.12h51.618v36.661h-51.618c-1.5 0-2.715-1.36-2.715-3.038V66.158c0-1.677 1.216-3.038 2.715-3.038z" class="I"/><use xlink:href="#C" class="B"/><path d="M679.24485781 83.930848259997c.452374078709-.000605299407.886385482061.20020107794 1.206326140131.558137367419s.499532350852.843603512481.49917156987 1.349902472581-.17913806893.991719078454-.498931839235 1.349633461157-.753630657324.558809860269-1.205887200766.558406378839l-.00067867 2e-12c-.452256543443.000403481428-.886093430461-.200491996135-1.205887200766-.558406378841s-.499292346814-.843466247781-.498931839235-1.349633461161.17913806893-.991719078451.498931839235-1.349633461154.753630657324-.558809860269 1.205887200766-.558406378839z" class="C"/><use xlink:href="#D" class="B"/><path d="M688.79306604 76.297169759999c.941655402625-8.3444e-8 1.70512299635.854135678119 1.705497710001 1.908039839998v.001519140002c-1.9842e-8 1.053781345909-.763273518914 1.908039862206-1.704819075927 1.908039839998H688.79306604c-.941655402626 8.3444e-8-1.70512299635-.854135678119-1.705497710001-1.908039839998v-.001519140002c.000748931558-1.053730483185.763997339007-1.907621028271 1.705497709999-1.908039840002z" class="F"/><use xlink:href="#E" class="B"/><path d="M699.706079639999 83.930848259997c.609073186061-.000135695926 1.171944700686.363409262038 1.476586288235.953691004317s.3047709429 1.317622428363.000339339145 1.908039856415-.86717376303.954213143657-1.476246949095.95434881927h-.000678678285c-.620543144894.019598802282-1.201591895044-.339724206206-1.517028954647-.938137131881s-.315437059604-1.34139249056 0-1.939805416238.896485809752-.957735934164 1.517028954647-.938137131883z" class="C"/><use xlink:href="#F" class="B"/><circle cx="8698.275" cy="16631.041" r="3.274" transform="matrix(.67867 0 0 .75957 -5184.814 -12550.732999999998)" class="J K O"/><path d="M667.212 74.805c.713 0 1.29.646 1.29 1.442v10.82c0 .798-.578 1.442-1.289 1.442s-1.289-.645-1.289-1.441V76.247c0-.796.576-1.442 1.288-1.442zm-5.156 0c.713 0 1.29.646 1.29 1.442v10.82c0 .798-.578 1.442-1.289 1.442s-1.289-.645-1.289-1.441V76.247c0-.796.576-1.442 1.288-1.442z" class="B"/><path d="M636.276 74.805H656.9v5.77h-20.625zm0 7.935H656.9v5.77h-20.625z" class="I"/><path d="M665.923 77.69h2.58v9.379c0 .796-.578 1.443-1.29 1.443s-1.289-.647-1.289-1.443V77.69z" class="F"/><path d="M660.768 83.182h2.579v3.887c0 .796-.578 1.443-1.29 1.443s-1.289-.647-1.289-1.443v-3.887z" class="C"/><use xlink:href="#G" class="P"/><path d="M644.01 76.969h10.312v1.442H644.01zm0 7.935h10.312v1.442H644.01z" class="G"/><use xlink:href="#H" class="F"/><use xlink:href="#I" class="Q"/><path d="M607.075 76.97c.534 0 .967.485.967 1.082v5.049c0 .597-.433 1.081-.967 1.081s-.967-.484-.967-1.081v-5.049c0-.598.433-1.083.967-1.083z" class="R"/><use xlink:href="#J" class="G"/><path d="M600.63 70.99c.533 0 .966.485.966 1.082v11.03c0 .597-.433 1.08-.967 1.08s-.966-.483-.966-1.08v-11.03c0-.598.433-1.083.966-1.083z" class="L"/><g class="C"><use xlink:href="#K"/><path d="M587.613 86.584c1.176 0 2.13 1.066 2.13 2.384v.189c0 1.317-.953 2.384-2.13 2.384s-2.13-1.067-2.13-2.384v-.189c0-1.317.954-2.384 2.13-2.384zm.126-8.172c.534 0 .967.485.967 1.083V83.1c0 .598-.433 1.083-.967 1.083s-.967-.485-.967-1.083v-3.605c0-.599.433-1.083.967-1.083z"/></g><circle cx="8703.023" cy="16635.789" r="8.022" transform="matrix(.67867 0 0 .75957 -5188.036999999999 -12554.34)" class="J K S"/><path d="M580.642 142.471H727.67v12.78H580.642z" class="U"/><path d="M579.11 107.935h150.294c2.965 0 5.368 1.954 5.368 4.365v27.931c0 2.411-2.403 4.365-5.368 4.365H579.11c-2.965 0-5.368-1.954-5.368-4.365V112.3c0-2.411 2.403-4.365 5.368-4.365z" class="N"/><path d="M576.457 107.935h51.618v36.662h-51.618c-1.5 0-2.715-1.36-2.715-3.039v-30.584c0-1.678 1.216-3.039 2.715-3.039z" class="I"/><path d="M675.16 121.063c.944 0 1.707.854 1.707 1.908v.001c0 1.054-.763 1.909-1.705 1.909h-.001c-.941 0-1.705-.855-1.705-1.909v-.001c0-1.054.764-1.908 1.705-1.908z" class="B"/><use xlink:href="#L" class="C"/><path d="M681.982 121.063c.942 0 1.706.854 1.706 1.908v.001c0 1.054-.764 1.909-1.705 1.909h-.001c-.942 0-1.705-.855-1.705-1.909v-.001c0-1.054.763-1.908 1.705-1.908zm4.092 7.634c.943 0 1.706.853 1.706 1.908s-.763 1.908-1.705 1.908h-.001c-.941 0-1.705-.853-1.705-1.908s.764-1.908 1.705-1.908z" class="B"/><path d="M688.801 121.063c.942 0 1.706.854 1.706 1.908v.001c0 1.054-.764 1.909-1.705 1.909s-1.706-.855-1.706-1.909v-.001c0-1.054.764-1.908 1.705-1.908z" class="F"/><path d="M692.894 128.697c.943 0 1.706.853 1.706 1.908s-.763 1.908-1.705 1.908h-.001c-.941 0-1.705-.853-1.705-1.908s.764-1.908 1.705-1.908zm2.728-7.634c.943 0 1.706.854 1.706 1.908v.001c0 1.054-.763 1.909-1.705 1.909s-1.706-.855-1.706-1.909v-.001c0-1.054.763-1.908 1.705-1.908z" class="B"/><use xlink:href="#M" class="C"/><path d="M702.442 121.063c.943 0 1.706.854 1.706 1.908v.001c0 1.054-.763 1.909-1.705 1.909s-1.706-.855-1.706-1.909v-.001c0-1.054.763-1.908 1.705-1.908zm4.092 7.634c.942 0 1.706.853 1.706 1.908s-.764 1.908-1.705 1.908-1.706-.853-1.706-1.908.764-1.908 1.705-1.908z" class="B"/><circle cx="8698.275" cy="16631.041" r="3.274" transform="matrix(.67867 0 0 .75957 -5184.814 -12505.918)" class="J K O"/><path d="M667.212 119.62c.713 0 1.29.646 1.29 1.442v10.821c0 .797-.578 1.442-1.289 1.442s-1.289-.646-1.289-1.442v-10.82c0-.797.576-1.442 1.288-1.442zm-5.156 0c.713 0 1.29.646 1.29 1.442v10.821c0 .797-.578 1.442-1.289 1.442s-1.289-.646-1.289-1.442v-10.82c0-.797.576-1.442 1.288-1.442z" class="B"/><path d="M636.276 119.62H656.9v5.771h-20.625zm0 7.935H656.9v5.77h-20.625z" class="I"/><path d="M665.923 122.506h2.58v9.378c0 .797-.578 1.443-1.29 1.443s-1.289-.647-1.289-1.443v-9.378z" class="F"/><path d="M660.768 127.997h2.579v3.887c0 .797-.578 1.443-1.29 1.443s-1.289-.647-1.289-1.443v-3.887z" class="C"/><path d="M636.276 119.62h5.156v5.771h-5.156zm0 7.935h5.156v5.77h-5.156z" class="P"/><path d="M644.01 121.784h10.312v1.442H644.01zm0 7.935h10.312v1.442H644.01z" class="G"/><path d="M613.394 131.4c1.176 0 2.13 1.066 2.13 2.383v.19c0 1.315-.954 2.384-2.13 2.384s-2.13-1.068-2.13-2.384v-.19c0-1.317.954-2.383 2.13-2.383zm.126-13.943c.533 0 .966.485.966 1.083v9.376c0 .598-.433 1.083-.967 1.083s-.966-.485-.966-1.083v-9.376c0-.599.433-1.083.966-1.083z" class="F"/><path d="M606.949 131.4c1.176 0 2.13 1.067 2.13 2.383v.19c0 1.316-.953 2.383-2.13 2.383s-2.13-1.066-2.13-2.383v-.19c0-1.316.954-2.384 2.13-2.384z" class="Q"/><path d="M607.075 121.785c.534 0 .967.485.967 1.083v5.048c0 .598-.433 1.081-.967 1.081s-.967-.483-.967-1.081v-5.048c0-.599.433-1.083.967-1.083z" class="R"/><path d="M600.504 131.4c1.176 0 2.13 1.067 2.13 2.383v.19c0 1.316-.954 2.383-2.13 2.383s-2.13-1.066-2.13-2.383v-.19c0-1.316.954-2.384 2.13-2.384z" class="G"/><path d="M600.63 115.804c.533 0 .966.486.966 1.084v11.029c0 .597-.433 1.081-.967 1.081s-.966-.484-.966-1.081v-11.03c0-.598.433-1.083.966-1.083z" class="L"/><path d="M594.058 131.4c1.176 0 2.13 1.067 2.13 2.383v.19c0 1.316-.953 2.383-2.13 2.383s-2.13-1.066-2.13-2.383v-.19c0-1.316.954-2.382 2.13-2.382zm.126-12.85c.534 0 .967.486.967 1.083v8.283c0 .598-.433 1.083-.967 1.083s-.967-.485-.967-1.083v-8.283c0-.598.433-1.083.967-1.083zm-6.571 12.85c1.176 0 2.13 1.066 2.13 2.383v.189c0 1.317-.953 2.384-2.13 2.384s-2.13-1.066-2.13-2.384v-.189c0-1.317.954-2.384 2.13-2.384zm.126-8.173c.534 0 .967.485.967 1.083v3.605c0 .598-.433 1.083-.967 1.083s-.967-.485-.967-1.083v-3.605c0-.598.433-1.083.967-1.083z" class="C"/><circle cx="8703.023" cy="16635.789" r="8.022" transform="matrix(.67867 0 0 .75957 -5188.036999999999 -12509.524)" class="J K S"/><path d="M580.642 187.648H727.67v12.78H580.642z" class="U"/><path d="M579.11 153.112h150.294c2.965 0 5.368 1.954 5.368 4.365v27.931c0 2.411-2.403 4.365-5.368 4.365H579.11c-2.965 0-5.368-1.954-5.368-4.365v-27.931c0-2.411 2.403-4.365 5.368-4.365z" class="N"/><path d="M576.457 153.112h51.618v36.661h-51.618c-1.5 0-2.715-1.36-2.715-3.038V156.15c0-1.678 1.216-3.038 2.715-3.038z" class="I"/><use xlink:href="#C" y="89.992" class="B"/><use xlink:href="#L" y="45.176" class="C"/><use xlink:href="#D" y="89.992" class="B"/><use xlink:href="#N" class="F"/><use xlink:href="#E" y="89.992" class="B"/><use xlink:href="#M" y="45.176" class="C"/><use xlink:href="#F" y="89.992" class="B"/><circle cx="8698.275" cy="16631.041" r="3.274" transform="matrix(.67867 0 0 .75957 -5184.814 -12460.74)" class="J K O"/><path d="M667.212 164.797c.713 0 1.29.646 1.29 1.442v10.82c0 .798-.578 1.442-1.289 1.442s-1.289-.645-1.289-1.441v-10.821c0-.796.576-1.442 1.288-1.442zm-5.156 0c.713 0 1.29.646 1.29 1.442v10.82c0 .798-.578 1.442-1.289 1.442s-1.289-.645-1.289-1.441v-10.821c0-.796.576-1.442 1.288-1.442z" class="B"/><path d="M636.276 164.797H656.9v5.77h-20.625zm0 7.935H656.9v5.77h-20.625z" class="I"/><path d="M665.923 167.683h2.58v9.378c0 .796-.578 1.443-1.29 1.443s-1.289-.647-1.289-1.443v-9.378z" class="F"/><path d="M660.768 173.174h2.579v3.887c0 .796-.578 1.443-1.29 1.443s-1.289-.647-1.289-1.443v-3.887z" class="C"/><use xlink:href="#G" y="89.992" class="P"/><path d="M644.01 166.96h10.312v1.443H644.01zm0 7.936h10.312v1.442H644.01z" class="G"/><use xlink:href="#H" y="89.992" class="F"/><use xlink:href="#I" y="89.992" class="Q"/><path d="M607.075 166.961c.534 0 .967.486.967 1.083v5.049c0 .597-.433 1.081-.967 1.081s-.967-.484-.967-1.081v-5.049c0-.598.433-1.083.967-1.083z" class="R"/><use xlink:href="#J" y="89.992" class="G"/><path d="M600.63 160.981c.533 0 .966.486.966 1.083v11.03c0 .597-.433 1.08-.967 1.08s-.966-.483-.966-1.08v-11.03c0-.598.433-1.083.966-1.083z" class="L"/><g class="C"><use xlink:href="#K" y="89.992"/><path d="M587.613 176.576c1.176 0 2.13 1.066 2.13 2.384v.189c0 1.317-.953 2.384-2.13 2.384s-2.13-1.067-2.13-2.384v-.189c0-1.317.954-2.384 2.13-2.384zm.126-8.172c.534 0 .967.485.967 1.083v3.605c0 .598-.433 1.083-.967 1.083s-.967-.485-.967-1.083v-3.605c0-.599.433-1.083.967-1.083z"/></g><circle cx="8703.023" cy="16635.789" r="8.022" transform="matrix(.67867 0 0 .75957 -5188.036999999999 -12464.347)" class="J K S"/><path d="M580.643 231.52H727.67v12.779H580.643z" class="U"/><path d="M579.11 196.984h150.295c2.964 0 5.368 1.954 5.368 4.364v27.932c0 2.41-2.404 4.364-5.368 4.364H579.111c-2.965 0-5.368-1.953-5.368-4.364v-27.932c0-2.41 2.403-4.364 5.368-4.364z" class="N"/><use xlink:href="#O" class="I"/><use xlink:href="#P" class="B"/><use xlink:href="#Q" class="C"/><use xlink:href="#R" class="B"/><use xlink:href="#N" x="0.001" y="43.872" class="F"/><use xlink:href="#S" class="B"/><use xlink:href="#T" class="C"/><use xlink:href="#U" class="B"/><circle cx="8698.275" cy="16631.041" r="3.274" transform="matrix(.67867 0 0 .75957 -5184.814 -12416.87)" class="J K O"/><path d="M667.213 208.67c.713 0 1.29.645 1.29 1.44v10.822c0 .796-.578 1.441-1.29 1.441s-1.288-.645-1.288-1.441V210.11c0-.796.576-1.442 1.288-1.442zm-5.156 0c.713 0 1.29.645 1.29 1.44v10.822c0 .796-.578 1.441-1.29 1.441s-1.288-.645-1.288-1.441V210.11c0-.796.576-1.442 1.288-1.442z" class="B"/><use xlink:href="#V" class="I"/><path d="M665.924 211.555h2.58v9.377c0 .797-.578 1.444-1.29 1.444s-1.29-.648-1.29-1.444v-9.377z" class="F"/><path d="M660.768 217.046h2.58v3.886c0 .797-.578 1.444-1.29 1.444s-1.289-.648-1.289-1.444v-3.886z" class="C"/><use xlink:href="#W" class="P"/><path d="M644.01 210.832h10.313v1.443h-10.312zm0 7.936h10.313v1.442h-10.312zm-30.616 1.68c1.176 0 2.13 1.067 2.13 2.383v.19c0 1.316-.953 2.384-2.13 2.384s-2.13-1.068-2.13-2.384v-.19c0-1.316.954-2.383 2.13-2.383z" class="G"/><use xlink:href="#X" class="L"/><use xlink:href="#Y" class="Q"/><use xlink:href="#Z" class="R"/><use xlink:href="#Y" x="-6.446" class="G"/><path d="M600.63 204.853c.534 0 .967.485.967 1.083v11.03c0 .597-.433 1.08-.967 1.08s-.967-.483-.967-1.08v-11.03c0-.598.433-1.083.967-1.083z" class="L"/><path d="M594.059 220.45c1.176 0 2.13 1.066 2.13 2.382v.19c0 1.315-.953 2.383-2.13 2.383s-2.13-1.067-2.13-2.383v-.19c0-1.316.954-2.383 2.13-2.383zm.126-12.851c.534 0 .967.485.967 1.083v8.282c0 .598-.433 1.083-.967 1.083s-.967-.485-.967-1.083v-8.282c0-.599.433-1.083.967-1.083z" class="F"/><path d="M587.614 220.448c1.176 0 2.13 1.066 2.13 2.384v.188c0 1.317-.954 2.385-2.13 2.385s-2.13-1.067-2.13-2.385v-.188c0-1.317.954-2.384 2.13-2.384zm.126-8.172c.533 0 .966.485.966 1.083v3.605c0 .597-.433 1.083-.967 1.083s-.966-.486-.966-1.083v-3.605c0-.599.433-1.083.966-1.083z" class="C"/><circle cx="8703.023" cy="16635.789" r="8.022" transform="matrix(.67867 0 0 .75957 -5188.036999999999 -12420.475999999999)" class="J K S"/><path d="M580.643 275.178H727.67v12.779H580.643z" class="U"/><path d="M579.11 240.642h150.295c2.964 0 5.368 1.953 5.368 4.364v27.932c0 2.41-2.404 4.364-5.368 4.364H579.111c-2.965 0-5.368-1.954-5.368-4.364v-27.932c0-2.41 2.403-4.364 5.368-4.364z" class="N"/><path d="M576.458 240.642h51.617v36.66h-51.617c-1.5 0-2.715-1.36-2.715-3.037V243.68c0-1.678 1.215-3.038 2.715-3.038z" class="I"/><path d="M675.162 253.77c.942 0 1.706.854 1.706 1.907v.002c0 1.053-.764 1.908-1.706 1.908s-1.705-.855-1.705-1.908v-.002c0-1.053.763-1.908 1.705-1.908z" class="B"/><use xlink:href="#Q" y="43.658" class="C"/><path d="M681.982 253.77h.002c.94 0 1.704.854 1.704 1.907v.002c0 1.053-.763 1.908-1.704 1.908h-.002c-.941 0-1.705-.855-1.705-1.908v-.002c0-1.053.764-1.908 1.705-1.908zm4.093 7.633c.942 0 1.706.853 1.706 1.908s-.764 1.908-1.706 1.908-1.705-.853-1.705-1.908.763-1.908 1.705-1.908z" class="B"/><path d="M688.802 253.77c.942 0 1.706.854 1.706 1.907v.002c0 1.053-.764 1.908-1.705 1.908s-1.706-.855-1.706-1.908v-.002c0-1.053.764-1.908 1.705-1.908z" class="F"/><path d="M692.895 261.403c.942 0 1.706.853 1.706 1.908s-.764 1.908-1.706 1.908-1.705-.853-1.705-1.908.763-1.908 1.705-1.908zm2.728-7.633c.942 0 1.705.854 1.705 1.907v.002c0 1.053-.763 1.908-1.705 1.908s-1.705-.855-1.705-1.908v-.002c0-1.053.763-1.908 1.705-1.908z" class="B"/><use xlink:href="#T" y="43.658" class="C"/><path d="M702.443 253.77c.942 0 1.705.854 1.705 1.907v.002c0 1.053-.763 1.908-1.705 1.908s-1.705-.855-1.705-1.908v-.002c0-1.053.763-1.908 1.705-1.908zm4.092 7.633c.942 0 1.706.853 1.706 1.908s-.764 1.908-1.705 1.908-1.706-.853-1.706-1.908.764-1.908 1.705-1.908z" class="B"/><circle cx="8698.275" cy="16631.041" r="3.274" transform="matrix(.67867 0 0 .75957 -5184.814 -12373.211)" class="J K O"/><use xlink:href="#a" class="B"/><use xlink:href="#V" y="43.657" class="I"/><path d="M665.924 255.212h2.58v9.378c0 .797-.578 1.443-1.29 1.443s-1.29-.647-1.29-1.443v-9.378z" class="F"/><use xlink:href="#b" class="C"/><use xlink:href="#W" y="43.657" class="P"/><path d="M644.01 254.49h10.313v1.442h-10.312zm0 7.935h10.313v1.443h-10.312z" class="G"/><circle cx="8703.023" cy="16635.789" r="8.022" transform="matrix(.67867 0 0 .75957 -5188.036999999999 -12376.818)" class="J K S"/><path d="M613.394 264.758c1.176 0 2.13 1.066 2.13 2.383v.19c0 1.315-.953 2.384-2.13 2.384s-2.13-1.068-2.13-2.385v-.19c0-1.316.954-2.382 2.13-2.382z" class="G"/><path d="M613.52 250.814c.534 0 .967.486.967 1.084v9.376c0 .597-.433 1.083-.967 1.083s-.967-.486-.967-1.083v-9.376c0-.599.433-1.084.967-1.084z" class="L"/><use xlink:href="#c" class="Q"/><path d="M607.075 255.142c.534 0 .967.486.967 1.084v5.048c0 .597-.433 1.081-.967 1.081s-.966-.484-.966-1.081v-5.048c0-.599.433-1.084.966-1.084z" class="R"/><use xlink:href="#c" x="-6.446" class="G"/><path d="M600.63 249.162c.534 0 .967.486.967 1.084v11.028c0 .598-.433 1.082-.967 1.082s-.967-.484-.967-1.082v-11.028c0-.599.433-1.084.967-1.084z" class="L"/><path d="M594.059 264.759c1.176 0 2.13 1.066 2.13 2.382v.19c0 1.316-.953 2.383-2.13 2.383s-2.13-1.066-2.13-2.383v-.19c0-1.316.954-2.382 2.13-2.382zm.126-12.851c.534 0 .967.486.967 1.083v8.283c0 .597-.433 1.083-.967 1.083s-.967-.486-.967-1.083v-8.283c0-.598.433-1.083.967-1.083z" class="F"/><path d="M587.614 264.757c1.176 0 2.13 1.067 2.13 2.384v.189c0 1.317-.954 2.384-2.13 2.384s-2.13-1.066-2.13-2.384v-.189c0-1.317.954-2.384 2.13-2.384zm.126-8.172c.533 0 .966.485.966 1.083v3.605c0 .598-.433 1.083-.967 1.083s-.966-.485-.966-1.083v-3.605c0-.599.433-1.083.966-1.083z" class="C"/><path d="M580.643 318.834H727.67v12.78H580.643z" class="U"/><path d="M579.11 284.298h150.295c2.964 0 5.368 1.954 5.368 4.365v27.931c0 2.411-2.404 4.365-5.368 4.365H579.111c-2.965 0-5.368-1.954-5.368-4.365v-27.931c0-2.41 2.403-4.365 5.368-4.365z" class="N"/><path d="M576.458 284.298h51.617v36.662h-51.617c-1.5 0-2.715-1.36-2.715-3.039v-30.584c0-1.678 1.215-3.039 2.715-3.039z" class="I"/><use xlink:href="#d" class="B"/><use xlink:href="#Q" y="87.315" class="C"/><use xlink:href="#e" class="B"/><use xlink:href="#f" class="F"/><use xlink:href="#g" class="B"/><use xlink:href="#T" y="87.315" class="C"/><use xlink:href="#h" class="B"/><circle cx="8698.275" cy="16631.041" r="3.274" transform="matrix(.67867 0 0 .75957 -5184.814 -12329.555)" class="J K O"/><use xlink:href="#a" y="43.657" class="B"/><use xlink:href="#V" y="87.314" class="I"/><path d="M665.924 298.87h2.58v9.377c0 .797-.578 1.443-1.29 1.443s-1.29-.647-1.29-1.443v-9.378z" class="F"/><use xlink:href="#b" y="43.657" class="C"/><use xlink:href="#W" y="87.314" class="P"/><path d="M644.01 298.147h10.313v1.442h-10.312zm0 7.935h10.313v1.442h-10.312z" class="G"/><circle cx="8703.023" cy="16635.789" r="8.022" transform="matrix(.67867 0 0 .75957 -5188.036999999999 -12333.161)" class="J K S"/><path d="M613.394 308.415c1.176 0 2.13 1.066 2.13 2.382v.19c0 1.316-.953 2.385-2.13 2.385s-2.13-1.068-2.13-2.385v-.19c0-1.316.954-2.382 2.13-2.382z" class="G"/><path d="M613.52 294.471c.534 0 .967.486.967 1.083v9.377c0 .597-.433 1.083-.967 1.083s-.967-.486-.967-1.083v-9.377c0-.598.433-1.083.967-1.083z" class="L"/><use xlink:href="#I" x="0.001" y="221.83" class="Q"/><path d="M607.075 298.8c.534 0 .967.485.967 1.082v5.049c0 .597-.433 1.081-.967 1.081s-.966-.484-.966-1.081v-5.049c0-.598.433-1.083.966-1.083z" class="R"/><use xlink:href="#I" x="-6.445" y="221.83" class="G"/><path d="M600.63 292.82c.534 0 .967.485.967 1.082v11.03c0 .597-.433 1.081-.967 1.081s-.967-.484-.967-1.082v-11.029c0-.598.433-1.083.967-1.083z" class="L"/><use xlink:href="#K" x="0.001" y="221.83" class="F"/><path d="M587.614 308.414c1.176 0 2.13 1.066 2.13 2.384v.189c0 1.317-.954 2.384-2.13 2.384s-2.13-1.067-2.13-2.384v-.189c0-1.317.954-2.384 2.13-2.384zm.126-8.172c.533 0 .966.485.966 1.083v3.605c0 .598-.433 1.083-.967 1.083s-.966-.485-.966-1.083v-3.605c0-.599.433-1.083.966-1.083z" class="C"/><path d="M580.643 362.492H727.67v12.779H580.643z" class="U"/><path d="M579.11 327.956h150.295c2.964 0 5.368 1.954 5.368 4.365v27.931c0 2.411-2.404 4.365-5.368 4.365H579.111c-2.965 0-5.368-1.954-5.368-4.365v-27.931c0-2.411 2.403-4.365 5.368-4.365z" class="N"/><use xlink:href="#O" y="130.972" class="I"/><use xlink:href="#P" y="130.972" class="B"/><use xlink:href="#Q" y="130.972" class="C"/><use xlink:href="#R" y="130.972" class="B"/><use xlink:href="#N" x="0.001" y="174.844" class="F"/><use xlink:href="#S" y="130.972" class="B"/><use xlink:href="#T" y="130.972" class="C"/><use xlink:href="#U" y="130.972" class="B"/><circle cx="8698.275" cy="16631.041" r="3.274" transform="matrix(.67867 0 0 .75957 -5184.814 -12285.897)" class="J K O"/><path d="M667.213 339.641c.713 0 1.29.646 1.29 1.442v10.82c0 .798-.578 1.442-1.29 1.442s-1.288-.645-1.288-1.441v-10.821c0-.796.576-1.442 1.288-1.442zm-5.156 0c.713 0 1.29.646 1.29 1.442v10.82c0 .798-.578 1.442-1.29 1.442s-1.288-.645-1.288-1.441v-10.821c0-.796.576-1.442 1.288-1.442z" class="B"/><path d="M636.276 339.641h20.625v5.77h-20.625zm0 7.935h20.625v5.77h-20.625z" class="I"/><path d="M665.924 342.527h2.58v9.377c0 .797-.578 1.444-1.29 1.444s-1.29-.647-1.29-1.444v-9.377z" class="F"/><path d="M660.768 348.018h2.58v3.886c0 .797-.578 1.444-1.29 1.444s-1.289-.647-1.289-1.444v-3.886z" class="C"/><use xlink:href="#G" y="264.836" class="P"/><path d="M644.01 341.805h10.313v1.442h-10.312zm0 7.935h10.313v1.442h-10.312z" class="G"/><circle cx="8703.023" cy="16635.789" r="8.022" transform="matrix(.67867 0 0 .75957 -5188.036999999999 -12289.503)" class="J K S"/><path d="M613.394 352.072c1.176 0 2.13 1.067 2.13 2.383v.19c0 1.316-.953 2.384-2.13 2.384s-2.13-1.068-2.13-2.384v-.19c0-1.316.954-2.383 2.13-2.383z" class="G"/><use xlink:href="#X" y="131.624" class="L"/><use xlink:href="#Y" y="131.624" class="Q"/><use xlink:href="#Z" y="131.624" class="R"/><use xlink:href="#Y" x="-6.446" y="131.624" class="G"/><path d="M600.63 336.477c.534 0 .967.485.967 1.083v11.029c0 .598-.433 1.082-.967 1.082s-.967-.484-.967-1.082V337.56c0-.598.433-1.083.967-1.083z" class="L"/><path d="M594.059 352.073c1.176 0 2.13 1.067 2.13 2.383v.19c0 1.315-.953 2.383-2.13 2.383s-2.13-1.067-2.13-2.383v-.19c0-1.316.954-2.383 2.13-2.383zm.126-12.85c.534 0 .967.485.967 1.083v8.282c0 .598-.433 1.083-.967 1.083s-.967-.485-.967-1.083v-8.282c0-.599.433-1.083.967-1.083z" class="F"/><path d="M587.614 352.072c1.176 0 2.13 1.066 2.13 2.384v.188c0 1.317-.954 2.385-2.13 2.385s-2.13-1.067-2.13-2.385v-.188c0-1.317.954-2.384 2.13-2.384zm.126-8.172c.533 0 .966.485.966 1.083v3.604c0 .598-.433 1.084-.967 1.084s-.966-.486-.966-1.084v-3.604c0-.599.433-1.084.966-1.084z" class="C"/><path d="M579.11 371.614h150.295c2.964 0 5.368 1.953 5.368 4.364v27.932c0 2.41-2.404 4.364-5.368 4.364H579.111c-2.965 0-5.368-1.953-5.368-4.364v-27.932c0-2.41 2.403-4.364 5.368-4.364z" class="N"/><use xlink:href="#O" y="174.63" class="I"/><use xlink:href="#d" y="87.315" class="B"/><use xlink:href="#Q" y="174.63" class="C"/><use xlink:href="#e" y="87.315" class="B"/><use xlink:href="#f" y="87.315" class="F"/><use xlink:href="#g" y="87.315" class="B"/><use xlink:href="#T" y="174.63" class="C"/><use xlink:href="#h" y="87.315" class="B"/><circle cx="8698.275" cy="16631.041" r="3.274" transform="matrix(.67867 0 0 .75957 -5184.814 -12242.24)" class="J K O"/><path d="M667.213 383.299c.713 0 1.29.646 1.29 1.442v10.82c0 .797-.578 1.442-1.29 1.442s-1.288-.646-1.288-1.442v-10.82c0-.796.576-1.442 1.288-1.442zm-5.156 0c.713 0 1.29.646 1.29 1.442v10.82c0 .797-.578 1.442-1.29 1.442s-1.288-.646-1.288-1.442v-10.82c0-.796.576-1.442 1.288-1.442z" class="B"/><use xlink:href="#V" y="174.629" class="I"/><path d="M665.924 386.184h2.58v9.378c0 .797-.578 1.443-1.29 1.443s-1.29-.647-1.29-1.443v-9.378z" class="F"/><use xlink:href="#b" y="130.972" class="C"/><use xlink:href="#W" y="174.629" class="P"/><path d="M644.01 385.462h10.313v1.443h-10.312zm0 7.935h10.313v1.443h-10.312z" class="G"/><circle cx="8703.023" cy="16635.789" r="8.022" transform="matrix(.67867 0 0 .75957 -5188.036999999999 -12245.846)" class="J K S"/><path d="M613.394 395.078c1.176 0 2.13 1.067 2.13 2.383v.19c0 1.315-.953 2.384-2.13 2.384s-2.13-1.068-2.13-2.384v-.19c0-1.316.954-2.383 2.13-2.383z" class="G"/><path d="M613.52 381.135c.534 0 .967.485.967 1.083v9.376c0 .598-.433 1.083-.967 1.083s-.967-.485-.967-1.083v-9.376c0-.599.433-1.083.967-1.083z" class="L"/><use xlink:href="#i" class="Q"/><use xlink:href="#Z" y="174.63" class="R"/><use xlink:href="#i" x="-6.446" class="G"/><path d="M600.63 379.483c.534 0 .967.485.967 1.083v11.029c0 .598-.433 1.082-.967 1.082s-.967-.484-.967-1.082v-11.029c0-.599.433-1.083.967-1.083z" class="L"/><path d="M594.059 395.079c1.176 0 2.13 1.066 2.13 2.383v.19c0 1.315-.953 2.382-2.13 2.382s-2.13-1.066-2.13-2.382v-.19c0-1.317.954-2.383 2.13-2.383zm.126-12.85c.534 0 .967.485.967 1.083v8.282c0 .598-.433 1.083-.967 1.083s-.967-.485-.967-1.083v-8.282c0-.599.433-1.083.967-1.083z" class="F"/><path d="M587.614 395.078c1.176 0 2.13 1.066 2.13 2.384v.188c0 1.317-.954 2.384-2.13 2.384s-2.13-1.066-2.13-2.384v-.188c0-1.317.954-2.384 2.13-2.384zm.126-8.173c.533 0 .966.486.966 1.083v3.605c0 .598-.433 1.084-.967 1.084s-.966-.486-.966-1.084v-3.605c0-.598.433-1.083.966-1.083z" class="C"/><defs ><path id="C" d="M675.16 76.248c.944 0 1.707.854 1.707 1.908v.001c0 1.054-.763 1.908-1.705 1.908h-.001c-.941 0-1.705-.854-1.705-1.908v-.001c0-1.054.764-1.908 1.705-1.908z"/><path id="D" d="M681.982 76.248c.942 0 1.706.854 1.706 1.908v.001c0 1.054-.764 1.908-1.705 1.908h-.001c-.942 0-1.705-.854-1.705-1.908v-.001c0-1.054.763-1.908 1.705-1.908zm4.092 7.633c.943 0 1.706.853 1.706 1.908s-.763 1.908-1.705 1.908h-.001c-.941 0-1.705-.853-1.705-1.908s.764-1.908 1.705-1.908z"/><path id="E" d="M692.894 83.881c.943 0 1.706.853 1.706 1.908s-.763 1.908-1.705 1.908h-.001c-.941 0-1.705-.853-1.705-1.908s.764-1.908 1.705-1.908zm2.728-7.633c.943 0 1.706.854 1.706 1.908v.001c0 1.054-.763 1.908-1.705 1.908s-1.706-.854-1.706-1.908v-.001c0-1.054.763-1.908 1.705-1.908z"/><path id="F" d="M702.442 76.248c.943 0 1.706.854 1.706 1.908v.001c0 1.054-.763 1.908-1.705 1.908s-1.706-.854-1.706-1.908v-.001c0-1.054.763-1.908 1.705-1.908zm4.092 7.633c.942 0 1.706.853 1.706 1.908s-.764 1.908-1.705 1.908-1.706-.853-1.706-1.908.764-1.908 1.705-1.908z"/><path id="G" d="M636.276 74.805h5.156v5.77h-5.156zm0 7.935h5.156v5.77h-5.156z"/><path id="H" d="M613.394 86.585c1.176 0 2.13 1.066 2.13 2.382v.19c0 1.316-.954 2.385-2.13 2.385s-2.13-1.068-2.13-2.385v-.19c0-1.316.954-2.382 2.13-2.382zm.126-13.944c.533 0 .966.486.966 1.083v9.377c0 .597-.433 1.083-.967 1.083s-.966-.486-.966-1.083v-9.377c0-.598.433-1.083.966-1.083z"/><path id="I" d="M606.949 86.584c1.176 0 2.13 1.068 2.13 2.384v.19c0 1.316-.953 2.383-2.13 2.383s-2.13-1.067-2.13-2.383v-.19c0-1.316.954-2.384 2.13-2.384z"/><path id="J" d="M600.504 86.584c1.176 0 2.13 1.068 2.13 2.384v.19c0 1.316-.954 2.383-2.13 2.383s-2.13-1.067-2.13-2.383v-.19c0-1.316.954-2.384 2.13-2.384z"/><path id="K" d="M594.058 86.585c1.176 0 2.13 1.067 2.13 2.383v.19c0 1.316-.953 2.383-2.13 2.383s-2.13-1.067-2.13-2.383v-.19c0-1.316.954-2.383 2.13-2.383zm.126-12.85c.534 0 .967.485.967 1.083v8.283c0 .597-.433 1.083-.967 1.083s-.967-.486-.967-1.083v-8.283c0-.598.433-1.083.967-1.083z"/><path id="L" d="M679.253 128.697c.943 0 1.706.853 1.706 1.908s-.763 1.908-1.705 1.908-1.706-.853-1.706-1.908.763-1.908 1.705-1.908z"/><path id="M" d="M699.715 128.697c.942 0 1.705.853 1.705 1.908s-.763 1.908-1.705 1.908-1.706-.853-1.706-1.908.764-1.908 1.706-1.908z"/><path id="N" d="M688.801 166.24c.942 0 1.706.854 1.706 1.908v.001c0 1.054-.764 1.908-1.705 1.908s-1.706-.854-1.706-1.908v-.001c0-1.054.764-1.908 1.705-1.908z"/><path id="O" d="M576.458 196.984h51.617v36.661h-51.617c-1.5 0-2.715-1.36-2.715-3.038v-30.585c0-1.678 1.215-3.038 2.715-3.038z"/><path id="P" d="M675.162 210.112c.942 0 1.706.854 1.706 1.908v.001c0 1.054-.764 1.908-1.706 1.908s-1.705-.854-1.705-1.908v-.001c0-1.054.763-1.908 1.705-1.908z"/><path id="Q" d="M679.254 217.745c.943 0 1.705.853 1.705 1.908s-.762 1.908-1.704 1.908h-.001c-.942 0-1.705-.853-1.705-1.908s.763-1.908 1.705-1.908z"/><path id="R" d="M681.982 210.112h.002c.94 0 1.704.854 1.704 1.908v.001c0 1.054-.763 1.908-1.704 1.908h-.002c-.941 0-1.705-.854-1.705-1.908v-.001c0-1.054.764-1.908 1.705-1.908zm4.093 7.633c.942 0 1.706.853 1.706 1.908s-.764 1.908-1.706 1.908-1.705-.853-1.705-1.908.763-1.908 1.705-1.908z"/><path id="S" d="M692.895 217.745c.942 0 1.706.853 1.706 1.908s-.764 1.908-1.706 1.908-1.705-.853-1.705-1.908.763-1.908 1.705-1.908zm2.728-7.633c.942 0 1.705.854 1.705 1.908v.001c0 1.054-.763 1.908-1.705 1.908s-1.705-.854-1.705-1.908v-.001c0-1.054.763-1.908 1.705-1.908z"/><path id="T" d="M699.715 217.745c.942 0 1.706.853 1.706 1.908s-.764 1.908-1.705 1.908-1.706-.853-1.706-1.908.764-1.908 1.705-1.908z"/><path id="U" d="M702.443 210.112c.942 0 1.705.854 1.705 1.908v.001c0 1.054-.763 1.908-1.705 1.908s-1.705-.854-1.705-1.908v-.001c0-1.054.763-1.908 1.705-1.908zm4.092 7.633c.942 0 1.706.853 1.706 1.908s-.764 1.908-1.705 1.908-1.706-.853-1.706-1.908.764-1.908 1.705-1.908z"/><path id="V" d="M636.276 208.67h20.625v5.77h-20.625zm0 7.934h20.625v5.77h-20.625z"/><path id="W" d="M636.276 208.67h5.156v5.77h-5.156zm0 7.934h5.156v5.77h-5.156z"/><path id="X" d="M613.52 206.505c.534 0 .967.485.967 1.083v9.376c0 .598-.433 1.083-.967 1.083s-.967-.485-.967-1.083v-9.376c0-.598.433-1.083.967-1.083z"/><path id="Y" d="M606.95 220.448c1.176 0 2.13 1.068 2.13 2.384v.19c0 1.315-.953 2.383-2.13 2.383s-2.13-1.067-2.13-2.383v-.19c0-1.316.954-2.384 2.13-2.384z"/><path id="Z" d="M607.075 210.833c.534 0 .967.485.967 1.083v5.048c0 .598-.433 1.082-.967 1.082s-.966-.484-.966-1.082v-5.048c0-.598.433-1.083.966-1.083z"/><path id="a" d="M667.213 252.327c.713 0 1.29.645 1.29 1.441v10.821c0 .797-.578 1.442-1.29 1.442s-1.288-.646-1.288-1.442v-10.82c0-.797.576-1.442 1.288-1.442zm-5.156 0c.713 0 1.29.645 1.29 1.441v10.821c0 .797-.578 1.442-1.29 1.442s-1.288-.646-1.288-1.442v-10.82c0-.797.576-1.442 1.288-1.442z"/><path id="b" d="M660.768 260.703h2.58v3.887c0 .797-.578 1.443-1.29 1.443s-1.289-.647-1.289-1.443v-3.887z"/><path id="c" d="M606.95 264.757c1.176 0 2.13 1.068 2.13 2.384v.19c0 1.316-.953 2.383-2.13 2.383s-2.13-1.066-2.13-2.383v-.19c0-1.316.954-2.384 2.13-2.384z"/><path id="d" d="M675.162 297.426c.942 0 1.706.855 1.706 1.908v.002c0 1.053-.764 1.908-1.706 1.908s-1.705-.855-1.705-1.908v-.002c0-1.053.763-1.908 1.705-1.908z"/><path id="e" d="M681.982 297.426h.002c.94 0 1.704.855 1.704 1.908v.002c0 1.053-.763 1.908-1.704 1.908h-.002c-.941 0-1.705-.855-1.705-1.908v-.002c0-1.053.764-1.908 1.705-1.908zm4.093 7.634c.942 0 1.706.853 1.706 1.908s-.764 1.908-1.706 1.908-1.705-.853-1.705-1.908.763-1.908 1.705-1.908z"/><path id="f" d="M688.802 297.426c.942 0 1.706.855 1.706 1.908v.002c0 1.053-.764 1.908-1.705 1.908s-1.706-.855-1.706-1.908v-.002c0-1.053.764-1.908 1.705-1.908z"/><path id="g" d="M692.895 305.06c.942 0 1.706.853 1.706 1.908s-.764 1.908-1.706 1.908-1.705-.853-1.705-1.908.763-1.908 1.705-1.908zm2.728-7.634c.942 0 1.705.855 1.705 1.908v.002c0 1.053-.763 1.908-1.705 1.908s-1.705-.855-1.705-1.908v-.002c0-1.053.763-1.908 1.705-1.908z"/><path id="h" d="M702.443 297.426c.942 0 1.705.855 1.705 1.908v.002c0 1.053-.763 1.908-1.705 1.908s-1.705-.855-1.705-1.908v-.002c0-1.053.763-1.908 1.705-1.908zm4.092 7.634c.942 0 1.706.853 1.706 1.908s-.764 1.908-1.705 1.908-1.706-.853-1.706-1.908.764-1.908 1.705-1.908z"/><path id="i" d="M606.95 395.078c1.176 0 2.13 1.067 2.13 2.384v.19c0 1.315-.953 2.382-2.13 2.382s-2.13-1.066-2.13-2.382v-.19c0-1.317.954-2.384 2.13-2.384z"/></defs></svg>